<svg xmlns="http://www.w3.org/2000/svg" xmlns:xlink="http://www.w3.org/1999/xlink" width="84" zoomAndPan="magnify" viewBox="0 0 63 62.999997" height="84" preserveAspectRatio="xMidYMid meet" version="1.0"><defs><clipPath id="9fdeae0b14"><path d="M 0 0 L 62.25 0 L 62.25 62.25 L 0 62.25 Z M 0 0 " clip-rule="nonzero"/></clipPath></defs><g clip-path="url(#9fdeae0b14)"><path fill="#0a1b29" d="M 0 46.898438 L 0 15.632812 C 0 7.035156 7.035156 0 15.632812 0 L 46.898438 0 C 55.496094 0 62.53125 7.035156 62.53125 15.632812 L 62.53125 46.898438 C 62.53125 55.496094 55.496094 62.53125 46.898438 62.53125 L 15.632812 62.53125 C 7.035156 62.53125 0 55.496094 0 46.898438 Z M 0 46.898438 " fill-opacity="1" fill-rule="nonzero"/></g><path fill="#ffffff" d="M 21.789062 32.597656 C 21.789062 33.25 22.320312 33.789062 22.972656 33.796875 C 23.640625 33.796875 24.191406 33.257812 24.191406 32.597656 C 24.191406 31.949219 23.652344 31.402344 23.003906 31.390625 C 22.351562 31.378906 21.789062 31.9375 21.789062 32.597656 Z M 40.488281 32.605469 C 40.492188 31.9375 39.945312 31.382812 39.289062 31.390625 C 38.640625 31.398438 38.097656 31.9375 38.09375 32.585938 C 38.089844 33.253906 38.628906 33.796875 39.300781 33.796875 C 39.953125 33.796875 40.488281 33.261719 40.488281 32.605469 Z M 31.234375 36.929688 L 42.847656 36.929688 C 43.335938 36.929688 43.449219 36.820312 43.445312 36.324219 C 43.445312 36.011719 43.433594 35.699219 43.429688 35.386719 C 43.425781 34.894531 43.347656 34.8125 42.847656 34.8125 L 24.761719 34.8125 C 23.019531 34.8125 21.273438 34.8125 19.53125 34.8125 C 19.179688 34.816406 19.0625 34.9375 19.0625 35.289062 L 19.0625 36.375 C 19.0625 36.867188 19.128906 36.929688 19.621094 36.929688 Z M 19.863281 22.984375 C 19.863281 24.417969 19.859375 25.851562 19.867188 27.28125 C 19.867188 27.863281 20.101562 28.09375 20.671875 28.09375 C 22.4375 28.09375 24.203125 28.09375 25.964844 28.09375 C 26.578125 28.09375 26.980469 27.699219 26.980469 27.097656 C 26.984375 24.355469 26.984375 21.613281 26.980469 18.871094 C 26.980469 18.25 26.59375 17.875 25.980469 17.875 L 20.746094 17.875 C 20.0625 17.875 19.867188 18.070312 19.863281 18.753906 C 19.863281 20.164062 19.863281 21.574219 19.863281 22.984375 Z M 35.207031 17.875 C 33.03125 17.875 30.855469 17.894531 28.675781 17.863281 C 27.917969 17.851562 27.53125 18.367188 27.542969 18.996094 C 27.5625 20.304688 27.546875 21.617188 27.546875 22.925781 C 27.546875 24.296875 27.546875 25.667969 27.550781 27.039062 C 27.550781 27.664062 27.933594 28.089844 28.511719 28.089844 C 32.96875 28.09375 37.421875 28.09375 41.878906 28.089844 C 42.414062 28.089844 42.660156 27.847656 42.660156 27.3125 C 42.664062 24.4375 42.664062 21.5625 42.660156 18.691406 C 42.660156 18.089844 42.429688 17.875 41.832031 17.875 Z M 39.03125 45.488281 L 42.097656 50.714844 C 42.03125 50.816406 41.941406 50.773438 41.871094 50.773438 C 41.316406 50.777344 40.761719 50.761719 40.207031 50.78125 C 39.953125 50.789062 39.8125 50.710938 39.683594 50.488281 C 38.769531 48.914062 37.832031 47.351562 36.914062 45.78125 C 36.796875 45.578125 36.671875 45.515625 36.441406 45.515625 C 33.113281 45.523438 29.789062 45.542969 26.460938 45.503906 C 25.894531 45.496094 25.617188 45.667969 25.347656 46.144531 C 24.523438 47.617188 23.636719 49.058594 22.785156 50.519531 C 22.671875 50.707031 22.5625 50.785156 22.339844 50.78125 C 21.785156 50.765625 21.230469 50.773438 20.675781 50.773438 C 20.359375 50.773438 20.359375 50.773438 20.519531 50.503906 L 23.296875 45.765625 C 23.335938 45.699219 23.375 45.628906 23.425781 45.53125 C 22.875 45.460938 22.347656 45.488281 21.820312 45.492188 C 21.519531 45.496094 21.28125 45.410156 21.066406 45.1875 C 20.589844 44.695312 20.105469 44.210938 19.609375 43.738281 C 19.394531 43.535156 19.296875 43.308594 19.304688 43.019531 C 19.316406 42.566406 19.292969 42.109375 19.3125 41.65625 C 19.324219 41.351562 19.226562 41.109375 18.949219 40.992188 C 18.28125 40.707031 18.132812 40.210938 18.148438 39.511719 C 18.191406 37.316406 18.160156 35.117188 18.15625 32.917969 C 18.152344 28.585938 18.144531 24.25 18.140625 19.914062 C 18.140625 18.84375 18.144531 17.777344 18.160156 16.707031 C 18.167969 15.855469 18.539062 15.15625 19.140625 14.574219 C 19.34375 14.371094 19.601562 14.246094 19.882812 14.195312 C 21.851562 13.835938 23.808594 13.414062 25.796875 13.167969 C 27.078125 13.011719 28.363281 12.929688 29.652344 12.882812 C 31.761719 12.8125 33.863281 12.886719 35.960938 13.105469 C 38.191406 13.335938 40.414062 13.671875 42.597656 14.195312 C 43.546875 14.421875 43.957031 15.195312 44.238281 16.046875 C 44.328125 16.328125 44.351562 16.621094 44.351562 16.914062 C 44.355469 20.90625 44.363281 24.898438 44.371094 28.890625 C 44.375 31.835938 44.378906 34.777344 44.390625 37.722656 C 44.394531 38.558594 44.347656 39.394531 44.304688 40.226562 C 44.292969 40.425781 44.207031 40.566406 44.042969 40.636719 C 43.285156 40.957031 43.140625 41.550781 43.164062 42.316406 C 43.199219 43.644531 43.351562 43.253906 42.371094 44.25 C 42.039062 44.585938 41.6875 44.90625 41.359375 45.246094 C 41.183594 45.425781 40.980469 45.496094 40.738281 45.492188 C 40.195312 45.484375 39.652344 45.488281 39.03125 45.488281 Z M 39.03125 45.488281 " fill-opacity="1" fill-rule="nonzero"/></svg>