<svg xmlns="http://www.w3.org/2000/svg" xmlns:xlink="http://www.w3.org/1999/xlink" width="84" zoomAndPan="magnify" viewBox="0 0 63 62.999997" height="84" preserveAspectRatio="xMidYMid meet" version="1.0"><defs><clipPath id="22d110c6b8"><path d="M 0 0 L 62.25 0 L 62.25 62.25 L 0 62.25 Z M 0 0 " clip-rule="nonzero"/></clipPath></defs><g clip-path="url(#22d110c6b8)"><path fill="#0a1b29" d="M 0 46.6875 L 0 15.5625 C 0 7.003906 7.003906 0 15.5625 0 L 46.6875 0 C 55.246094 0 62.246094 7.003906 62.246094 15.5625 L 62.246094 46.6875 C 62.246094 55.246094 55.246094 62.25 46.6875 62.25 L 15.5625 62.25 C 7.003906 62.25 0 55.246094 0 46.6875 Z M 0 46.6875 " fill-opacity="1" fill-rule="nonzero"/></g><path fill="#ffffff" d="M 20.132812 34.644531 C 21.109375 34.652344 21.875 33.90625 21.863281 32.957031 C 21.855469 32.050781 21.085938 31.292969 20.175781 31.292969 C 19.222656 31.289062 18.472656 32.046875 18.46875 33.015625 C 18.460938 33.890625 19.226562 34.640625 20.132812 34.644531 Z M 42.050781 34.644531 C 43.027344 34.652344 43.789062 33.90625 43.78125 32.957031 C 43.769531 32.050781 43.003906 31.292969 42.09375 31.292969 C 41.140625 31.289062 40.390625 32.046875 40.382812 33.015625 C 40.378906 33.890625 41.144531 34.640625 42.050781 34.644531 Z M 31.101562 40.148438 C 34.773438 40.148438 38.449219 40.148438 42.121094 40.144531 C 43.035156 40.144531 43.777344 39.382812 43.78125 38.460938 C 43.78125 37.554688 43.015625 36.753906 42.125 36.753906 C 34.789062 36.753906 27.457031 36.753906 20.121094 36.753906 C 19.898438 36.753906 19.683594 36.796875 19.484375 36.890625 C 18.757812 37.21875 18.339844 38.03125 18.503906 38.792969 C 18.679688 39.621094 19.324219 40.144531 20.179688 40.148438 C 23.820312 40.148438 27.460938 40.148438 31.101562 40.148438 Z M 31.167969 18.972656 C 28.777344 18.972656 26.386719 18.960938 23.996094 18.976562 C 22.707031 18.980469 21.765625 19.574219 21.203125 20.738281 C 21.042969 21.066406 20.910156 21.40625 20.757812 21.738281 C 19.984375 23.449219 19.296875 25.191406 18.839844 27.019531 C 18.59375 27.988281 19.203125 28.804688 20.203125 28.863281 C 20.421875 28.875 20.511719 28.804688 20.5625 28.585938 C 20.648438 28.1875 20.769531 27.800781 20.894531 27.414062 C 21.070312 26.871094 21.464844 26.5625 22.03125 26.554688 C 23.234375 26.542969 24.433594 26.542969 25.632812 26.554688 C 26.203125 26.5625 26.597656 26.867188 26.773438 27.410156 C 26.894531 27.773438 27.023438 28.140625 27.09375 28.515625 C 27.148438 28.8125 27.28125 28.867188 27.558594 28.867188 C 32.304688 28.859375 37.054688 28.863281 41.804688 28.863281 L 41.929688 28.863281 C 43.050781 28.839844 43.664062 28.03125 43.394531 26.949219 C 42.855469 24.804688 41.976562 22.789062 41.066406 20.789062 C 40.511719 19.570312 39.539062 18.976562 38.210938 18.972656 C 35.863281 18.964844 33.515625 18.972656 31.167969 18.972656 Z M 18.472656 44.660156 C 18.472656 44.210938 18.460938 43.761719 18.480469 43.3125 C 18.488281 43.117188 18.40625 43.054688 18.242188 43.03125 C 17.902344 42.980469 17.570312 42.90625 17.25 42.769531 C 16.902344 42.617188 16.699219 42.386719 16.652344 41.976562 C 16.457031 40.34375 16.214844 38.714844 16.019531 37.082031 C 15.839844 35.566406 15.808594 34.046875 15.886719 32.523438 C 15.972656 30.84375 16.195312 29.183594 16.554688 27.542969 C 16.601562 27.339844 16.542969 27.324219 16.371094 27.328125 C 15.828125 27.335938 15.289062 27.328125 14.746094 27.328125 C 14.597656 27.328125 14.449219 27.332031 14.316406 27.261719 C 14.109375 27.152344 13.949219 27.027344 13.964844 26.738281 C 13.992188 26.324219 13.972656 25.90625 13.972656 25.488281 C 13.972656 25.109375 14.144531 24.878906 14.542969 24.871094 C 15.394531 24.859375 16.253906 24.796875 17.101562 24.910156 C 17.253906 24.929688 17.277344 24.871094 17.3125 24.761719 C 17.824219 23.132812 18.53125 21.582031 19.226562 20.03125 C 20.15625 17.957031 21.777344 16.917969 24.039062 16.878906 C 25.175781 16.859375 26.3125 16.863281 27.449219 16.882812 C 27.730469 16.890625 27.824219 16.789062 27.875 16.539062 C 27.945312 16.207031 28.046875 15.875 28.148438 15.550781 C 28.347656 14.914062 28.746094 14.605469 29.410156 14.597656 C 30.550781 14.589844 31.6875 14.589844 32.824219 14.597656 C 33.492188 14.601562 33.886719 14.902344 34.089844 15.542969 C 34.199219 15.902344 34.308594 16.261719 34.390625 16.625 C 34.4375 16.824219 34.523438 16.882812 34.726562 16.882812 C 36.007812 16.875 37.292969 16.84375 38.574219 16.90625 C 40.621094 17.003906 42.09375 18.042969 42.953125 19.878906 C 43.691406 21.46875 44.414062 23.070312 44.933594 24.75 C 44.957031 24.824219 44.941406 24.957031 45.097656 24.917969 C 45.613281 24.789062 46.136719 24.882812 46.65625 24.859375 C 46.96875 24.847656 47.285156 24.851562 47.597656 24.859375 C 48.089844 24.875 48.285156 25.082031 48.285156 25.5625 L 48.285156 26.65625 C 48.285156 27.066406 48.078125 27.304688 47.652344 27.320312 C 47.085938 27.339844 46.523438 27.335938 45.960938 27.324219 C 45.726562 27.320312 45.640625 27.339844 45.707031 27.628906 C 46.128906 29.566406 46.351562 31.527344 46.386719 33.511719 C 46.421875 35.488281 46.222656 37.441406 45.933594 39.394531 C 45.808594 40.238281 45.695312 41.082031 45.605469 41.933594 C 45.5625 42.359375 45.363281 42.625 44.980469 42.777344 C 44.699219 42.890625 44.40625 42.988281 44.109375 43.011719 C 43.816406 43.035156 43.765625 43.164062 43.769531 43.425781 C 43.785156 44.25 43.777344 45.078125 43.773438 45.902344 C 43.773438 46.433594 43.433594 46.859375 42.902344 46.902344 C 42.074219 46.96875 41.234375 46.972656 40.402344 46.902344 C 39.839844 46.855469 39.519531 46.453125 39.519531 45.890625 C 39.519531 45.167969 39.511719 44.449219 39.523438 43.730469 C 39.527344 43.53125 39.46875 43.480469 39.273438 43.492188 C 37.566406 43.582031 35.859375 43.648438 34.148438 43.65625 C 33.011719 43.664062 31.875 43.710938 30.738281 43.695312 C 28.144531 43.664062 25.546875 43.652344 22.957031 43.488281 C 22.761719 43.476562 22.734375 43.554688 22.738281 43.71875 C 22.746094 44.429688 22.742188 45.136719 22.738281 45.847656 C 22.738281 46.46875 22.386719 46.886719 21.761719 46.914062 C 20.988281 46.949219 20.214844 46.949219 19.445312 46.914062 C 18.8125 46.886719 18.476562 46.480469 18.472656 45.847656 C 18.472656 45.453125 18.472656 45.054688 18.472656 44.660156 Z M 18.472656 44.660156 " fill-opacity="1" fill-rule="nonzero"/></svg>