<svg xmlns="http://www.w3.org/2000/svg" xmlns:xlink="http://www.w3.org/1999/xlink" width="84" zoomAndPan="magnify" viewBox="0 0 63 62.999997" height="84" preserveAspectRatio="xMidYMid meet" version="1.0"><defs><clipPath id="e57ad06712"><path d="M 0 0 L 62.25 0 L 62.25 62.25 L 0 62.25 Z M 0 0 " clip-rule="nonzero"/></clipPath></defs><g clip-path="url(#e57ad06712)"><path fill="#0a1b29" d="M 0 46.710938 L 0 15.570312 C 0 7.007812 7.007812 0 15.570312 0 L 46.714844 0 C 55.277344 0 62.28125 7.007812 62.28125 15.570312 L 62.28125 46.714844 C 62.28125 55.277344 55.277344 62.285156 46.710938 62.285156 L 15.570312 62.285156 C 7.007812 62.285156 0 55.277344 0 46.710938 Z M 0 46.710938 " fill-opacity="1" fill-rule="nonzero"/></g><path fill="#ffffff" d="M 16.917969 15.132812 L 16.933594 15.121094 C 17.179688 14.941406 17.476562 14.761719 17.820312 14.582031 L 18.9375 28.128906 L 18.941406 28.160156 C 19.554688 32.042969 20.761719 35.152344 22.53125 37.398438 L 22.542969 37.410156 L 22.796875 37.71875 C 24.816406 40.003906 27.859375 41.316406 31.148438 41.316406 C 34.300781 41.316406 37.265625 40.089844 39.28125 37.957031 L 39.320312 37.914062 L 39.8125 37.316406 C 41.164062 35.578125 42.785156 32.964844 43.347656 28.128906 L 43.347656 28.097656 L 44.488281 14.597656 C 44.820312 14.769531 45.113281 14.945312 45.351562 15.121094 L 45.367188 15.132812 C 45.835938 15.527344 46.128906 16.113281 46.128906 16.765625 L 46.128906 23.703125 L 46.117188 28.035156 L 46.128906 31.496094 C 46.144531 32.730469 46.023438 34.03125 45.75 35.351562 C 44.921875 39.402344 42.730469 42.359375 40.273438 43.738281 L 40.246094 43.753906 C 39.496094 44.257812 38.671875 44.667969 37.800781 44.96875 L 40.90625 50.257812 L 38.882812 50.253906 L 36.023438 45.417969 L 36.042969 45.414062 C 35.445312 45.515625 34.832031 45.566406 34.203125 45.566406 L 32.617188 45.5625 L 29.667969 45.5625 L 28.082031 45.566406 C 27.453125 45.566406 26.839844 45.515625 26.242188 45.414062 L 26.257812 45.417969 L 23.402344 50.253906 L 21.378906 50.257812 L 24.484375 44.96875 C 23.613281 44.667969 22.789062 44.257812 22.035156 43.753906 L 22.007812 43.738281 C 19.554688 42.359375 17.363281 39.402344 16.53125 35.351562 C 16.261719 34.03125 16.140625 32.730469 16.15625 31.496094 L 16.164062 28.035156 L 16.15625 23.703125 L 16.15625 16.765625 C 16.15625 16.113281 16.449219 15.527344 16.917969 15.132812 Z M 16.917969 15.132812 " fill-opacity="1" fill-rule="nonzero"/><path fill="#ffffff" d="M 41.96875 30.308594 C 41.242188 33.40625 40.039062 35.289062 39 36.628906 L 38.515625 37.214844 C 36.6875 39.140625 33.984375 40.242188 31.097656 40.242188 C 28.082031 40.242188 25.304688 39.058594 23.476562 36.996094 L 23.238281 36.707031 C 21.949219 35.066406 20.960938 32.917969 20.292969 30.300781 L 20.285156 30.265625 C 20.28125 30.25 20.28125 30.230469 20.28125 30.210938 C 20.28125 30.066406 20.398438 29.949219 20.539062 29.949219 L 41.722656 29.949219 C 41.867188 29.949219 41.984375 30.066406 41.984375 30.210938 C 41.984375 30.230469 41.980469 30.25 41.976562 30.265625 Z M 41.96875 30.308594 " fill-opacity="1" fill-rule="nonzero"/><path fill="#ffffff" d="M 21.949219 17.960938 C 22.515625 17.960938 22.972656 17.503906 22.972656 16.9375 C 22.972656 16.375 22.515625 15.917969 21.949219 15.917969 C 21.386719 15.917969 20.929688 16.375 20.929688 16.9375 C 20.929688 17.503906 21.386719 17.960938 21.949219 17.960938 Z M 24.5625 17.964844 C 25.125 17.964844 25.582031 17.507812 25.582031 16.945312 C 25.582031 16.382812 25.125 15.925781 24.5625 15.925781 C 23.996094 15.925781 23.542969 16.382812 23.542969 16.945312 C 23.542969 17.507812 23.996094 17.964844 24.5625 17.964844 Z M 37.691406 17.960938 C 38.253906 17.960938 38.710938 17.503906 38.710938 16.9375 C 38.710938 16.375 38.253906 15.917969 37.691406 15.917969 C 37.125 15.917969 36.667969 16.375 36.667969 16.9375 C 36.667969 17.503906 37.125 17.960938 37.691406 17.960938 Z M 40.300781 17.964844 C 40.863281 17.964844 41.320312 17.507812 41.320312 16.945312 C 41.320312 16.382812 40.863281 15.925781 40.300781 15.925781 C 39.734375 15.925781 39.277344 16.382812 39.277344 16.945312 C 39.277344 17.507812 39.734375 17.964844 40.300781 17.964844 Z M 30.84375 11.90625 L 31.433594 11.90625 C 34.695312 11.953125 40.179688 12.902344 43.402344 14.109375 L 42.957031 19.65625 L 42.949219 19.78125 C 42.929688 20.164062 43.003906 20.472656 42.613281 20.472656 L 20.058594 20.472656 C 19.667969 20.472656 19.347656 20.164062 19.332031 19.78125 L 19.324219 19.726562 L 18.859375 14.117188 C 22.085938 12.910156 27.574219 11.957031 30.84375 11.90625 Z M 30.84375 11.90625 " fill-opacity="1" fill-rule="nonzero"/></svg>