<svg xmlns="http://www.w3.org/2000/svg" xmlns:xlink="http://www.w3.org/1999/xlink" width="213" zoomAndPan="magnify" viewBox="0 0 159.75 50.249999" height="67" preserveAspectRatio="xMidYMid meet" version="1.0"><defs><clipPath id="7bc0cf8931"><path d="M 1.453125 0 L 49.871094 0 L 49.871094 48.707031 L 1.453125 48.707031 Z M 1.453125 0 " clip-rule="nonzero"/></clipPath><clipPath id="0bfd9fd204"><path d="M 25.703125 0 C 12.308594 0 1.453125 10.921875 1.453125 24.394531 C 1.453125 37.867188 12.308594 48.789062 25.703125 48.789062 C 39.09375 48.789062 49.949219 37.867188 49.949219 24.394531 C 49.949219 10.921875 39.09375 0 25.703125 0 Z M 25.703125 0 " clip-rule="nonzero"/></clipPath><clipPath id="8ec5164eba"><path d="M 11.929688 39.5 L 13.382812 39.5 L 13.382812 40.953125 L 11.929688 40.953125 Z M 11.929688 39.5 " clip-rule="nonzero"/></clipPath><clipPath id="fc2e8b40eb"><path d="M 12.65625 39.5 C 12.253906 39.5 11.929688 39.828125 11.929688 40.226562 C 11.929688 40.628906 12.253906 40.957031 12.65625 40.957031 C 13.058594 40.957031 13.386719 40.628906 13.386719 40.226562 C 13.386719 39.828125 13.058594 39.5 12.65625 39.5 Z M 12.65625 39.5 " clip-rule="nonzero"/></clipPath><clipPath id="6c84eaab34"><path d="M 12.414062 39.695312 L 12.933594 39.695312 L 12.933594 40.792969 L 12.414062 40.792969 Z M 12.414062 39.695312 " clip-rule="nonzero"/></clipPath></defs><g clip-path="url(#7bc0cf8931)"><g clip-path="url(#0bfd9fd204)"><path stroke-linecap="butt" transform="matrix(0.47939, 0, 0, 0.48225, 1.451492, 0.000000000000030396)" fill="none" stroke-linejoin="miter" d="M 50.588532 -0.00000000000006303 C 22.647746 -0.00000000000006303 0.003406 22.64773 0.003406 50.584789 C 0.003406 78.521849 22.647746 101.169579 50.588532 101.169579 C 78.521169 101.169579 101.165509 78.521849 101.165509 50.584789 C 101.165509 22.64773 78.521169 -0.00000000000006303 50.588532 -0.00000000000006303 Z M 50.588532 -0.00000000000006303 " stroke="#ffffff" stroke-width="20" stroke-opacity="1" stroke-miterlimit="4"/></g></g><path fill="#ffffff" d="M 19.558594 20.199219 C 19.558594 19.25 19.703125 18.375 19.992188 17.578125 C 20.277344 16.777344 20.695312 16.09375 21.238281 15.527344 C 21.78125 14.960938 22.445312 14.515625 23.230469 14.191406 C 24.019531 13.863281 24.921875 13.695312 25.941406 13.695312 C 28.027344 13.695312 29.664062 14.328125 30.859375 15.585938 C 32.050781 16.839844 32.648438 18.667969 32.648438 21.058594 C 32.648438 23.21875 32.375 25.082031 31.832031 26.660156 C 31.289062 28.234375 30.558594 29.542969 29.640625 30.59375 C 28.722656 31.644531 27.664062 32.453125 26.464844 33.011719 C 25.265625 33.566406 23.996094 33.894531 22.664062 34.011719 L 21.890625 31.160156 C 22.910156 31.035156 23.8125 30.785156 24.605469 30.414062 C 25.402344 30.042969 26.085938 29.582031 26.65625 29.035156 C 27.230469 28.484375 27.703125 27.863281 28.0625 27.167969 C 28.425781 26.464844 28.679688 25.714844 28.828125 24.910156 C 28.378906 25.398438 27.898438 25.734375 27.390625 25.921875 C 26.886719 26.105469 26.210938 26.195312 25.359375 26.195312 C 24.65625 26.195312 23.953125 26.074219 23.257812 25.832031 C 22.566406 25.589844 21.945312 25.222656 21.398438 24.730469 C 20.855469 24.238281 20.414062 23.617188 20.070312 22.867188 C 19.730469 22.113281 19.558594 21.226562 19.558594 20.199219 Z M 23.058594 20.007812 C 23.058594 21.066406 23.351562 21.863281 23.941406 22.402344 C 24.53125 22.945312 25.273438 23.210938 26.164062 23.210938 C 26.921875 23.210938 27.535156 23.089844 28.011719 22.847656 C 28.496094 22.605469 28.867188 22.308594 29.128906 21.957031 C 29.183594 21.570312 29.210938 21.195312 29.210938 20.835938 C 29.210938 20.316406 29.144531 19.808594 29.019531 19.308594 C 28.890625 18.804688 28.691406 18.355469 28.425781 17.964844 C 28.15625 17.574219 27.8125 17.261719 27.390625 17.035156 C 26.972656 16.796875 26.480469 16.679688 25.914062 16.679688 C 25.007812 16.679688 24.304688 16.972656 23.800781 17.558594 C 23.304688 18.144531 23.058594 18.960938 23.058594 20.007812 Z M 23.058594 20.007812 " fill-opacity="1" fill-rule="nonzero"/><path fill="#ffffff" d="M 67.425781 10.722656 L 64.300781 10.722656 L 64.300781 19.632812 L 62.199219 19.632812 L 62.199219 10.722656 L 59.0625 10.722656 L 59.0625 8.84375 L 67.425781 8.84375 Z M 67.425781 10.722656 " fill-opacity="1" fill-rule="nonzero"/><path fill="#ffffff" d="M 71.097656 13.808594 C 70.78125 13.695312 70.492188 13.636719 70.230469 13.636719 C 69.875 13.636719 69.578125 13.730469 69.335938 13.917969 C 69.097656 14.109375 68.9375 14.351562 68.855469 14.648438 L 68.855469 19.632812 L 66.863281 19.632812 L 66.863281 11.925781 L 68.414062 11.925781 L 68.644531 12.9375 L 68.703125 12.9375 C 68.878906 12.5625 69.113281 12.269531 69.40625 12.070312 C 69.703125 11.859375 70.050781 11.753906 70.453125 11.753906 C 70.714844 11.753906 71.015625 11.8125 71.359375 11.925781 Z M 71.097656 13.808594 " fill-opacity="1" fill-rule="nonzero"/><path fill="#ffffff" d="M 72.195312 12.371094 C 72.601562 12.183594 73.089844 12.035156 73.652344 11.925781 C 74.214844 11.820312 74.804688 11.765625 75.421875 11.765625 C 75.949219 11.765625 76.390625 11.832031 76.75 11.957031 C 77.109375 12.085938 77.394531 12.269531 77.601562 12.511719 C 77.808594 12.75 77.957031 13.035156 78.046875 13.363281 C 78.132812 13.6875 78.175781 14.054688 78.175781 14.464844 C 78.175781 14.917969 78.160156 15.371094 78.125 15.832031 C 78.097656 16.289062 78.082031 16.742188 78.074219 17.1875 C 78.070312 17.625 78.082031 18.050781 78.117188 18.46875 C 78.148438 18.890625 78.226562 19.285156 78.347656 19.652344 L 76.71875 19.652344 L 76.398438 18.582031 L 76.328125 18.582031 C 76.117188 18.90625 75.835938 19.183594 75.472656 19.410156 C 75.109375 19.636719 74.640625 19.753906 74.066406 19.753906 C 73.707031 19.753906 73.386719 19.699219 73.101562 19.59375 C 72.820312 19.484375 72.570312 19.335938 72.367188 19.136719 C 72.164062 18.933594 72.007812 18.699219 71.894531 18.429688 C 71.777344 18.152344 71.722656 17.847656 71.722656 17.507812 C 71.722656 17.03125 71.824219 16.628906 72.035156 16.304688 C 72.246094 15.980469 72.550781 15.722656 72.9375 15.527344 C 73.332031 15.324219 73.804688 15.1875 74.347656 15.113281 C 74.894531 15.03125 75.507812 15.007812 76.1875 15.042969 C 76.257812 14.460938 76.21875 14.046875 76.066406 13.796875 C 75.910156 13.542969 75.566406 13.414062 75.03125 13.414062 C 74.632812 13.414062 74.210938 13.460938 73.761719 13.546875 C 73.320312 13.625 72.960938 13.734375 72.675781 13.867188 Z M 74.726562 18.105469 C 75.121094 18.105469 75.4375 18.019531 75.671875 17.84375 C 75.914062 17.660156 76.089844 17.464844 76.195312 17.257812 L 76.195312 16.253906 C 75.878906 16.222656 75.574219 16.21875 75.28125 16.246094 C 74.992188 16.265625 74.734375 16.3125 74.507812 16.386719 C 74.285156 16.453125 74.109375 16.554688 73.972656 16.691406 C 73.839844 16.828125 73.773438 16.992188 73.773438 17.195312 C 73.773438 17.488281 73.855469 17.710938 74.023438 17.875 C 74.199219 18.03125 74.433594 18.105469 74.726562 18.105469 Z M 74.726562 18.105469 " fill-opacity="1" fill-rule="nonzero"/><path fill="#ffffff" d="M 84.542969 19.632812 L 84.542969 15.253906 C 84.542969 14.628906 84.453125 14.175781 84.273438 13.898438 C 84.089844 13.625 83.785156 13.484375 83.355469 13.484375 C 82.980469 13.484375 82.664062 13.59375 82.402344 13.816406 C 82.140625 14.035156 81.953125 14.308594 81.839844 14.636719 L 81.839844 19.632812 L 79.847656 19.632812 L 79.847656 11.925781 L 81.425781 11.925781 L 81.660156 12.9375 L 81.71875 12.9375 C 81.953125 12.609375 82.265625 12.320312 82.652344 12.078125 C 83.039062 11.832031 83.539062 11.703125 84.152344 11.703125 C 84.535156 11.703125 84.871094 11.761719 85.167969 11.867188 C 85.460938 11.96875 85.710938 12.136719 85.910156 12.371094 C 86.117188 12.609375 86.273438 12.929688 86.375 13.332031 C 86.480469 13.738281 86.535156 14.242188 86.535156 14.839844 L 86.535156 19.632812 Z M 84.542969 19.632812 " fill-opacity="1" fill-rule="nonzero"/><path fill="#ffffff" d="M 91.378906 17.507812 C 91.378906 17.300781 91.292969 17.136719 91.117188 17.011719 C 90.941406 16.886719 90.726562 16.769531 90.464844 16.667969 C 90.210938 16.570312 89.929688 16.464844 89.621094 16.355469 C 89.320312 16.25 89.039062 16.101562 88.785156 15.910156 C 88.53125 15.722656 88.316406 15.484375 88.144531 15.195312 C 87.96875 14.898438 87.882812 14.515625 87.882812 14.050781 C 87.882812 13.289062 88.105469 12.710938 88.554688 12.3125 C 89.003906 11.90625 89.652344 11.703125 90.503906 11.703125 C 91.089844 11.703125 91.613281 11.769531 92.085938 11.898438 C 92.550781 12.019531 92.921875 12.15625 93.191406 12.3125 L 92.738281 13.757812 C 92.5 13.664062 92.203125 13.566406 91.84375 13.464844 C 91.484375 13.363281 91.128906 13.3125 90.765625 13.3125 C 90.167969 13.3125 89.871094 13.542969 89.871094 14 C 89.871094 14.191406 89.957031 14.339844 90.132812 14.457031 C 90.308594 14.5625 90.519531 14.667969 90.777344 14.769531 C 91.03125 14.863281 91.3125 14.96875 91.621094 15.082031 C 91.929688 15.199219 92.210938 15.34375 92.464844 15.527344 C 92.71875 15.703125 92.933594 15.9375 93.109375 16.226562 C 93.28125 16.515625 93.371094 16.886719 93.371094 17.335938 C 93.371094 18.121094 93.121094 18.734375 92.625 19.179688 C 92.128906 19.621094 91.386719 19.84375 90.394531 19.84375 C 89.851562 19.84375 89.34375 19.773438 88.867188 19.632812 C 88.390625 19.5 88.003906 19.339844 87.710938 19.15625 L 88.265625 17.660156 C 88.496094 17.796875 88.808594 17.929688 89.199219 18.054688 C 89.585938 18.183594 89.984375 18.246094 90.394531 18.246094 C 90.6875 18.246094 90.929688 18.191406 91.109375 18.074219 C 91.289062 17.960938 91.378906 17.773438 91.378906 17.507812 Z M 91.378906 17.507812 " fill-opacity="1" fill-rule="nonzero"/><path fill="#ffffff" d="M 94.671875 11.925781 L 96.128906 11.925781 L 96.363281 12.847656 L 96.421875 12.847656 C 96.683594 12.457031 96.996094 12.167969 97.355469 11.988281 C 97.722656 11.800781 98.167969 11.703125 98.683594 11.703125 C 99.648438 11.703125 100.367188 12.011719 100.84375 12.625 C 101.328125 13.238281 101.570312 14.222656 101.570312 15.578125 C 101.570312 16.238281 101.492188 16.835938 101.335938 17.367188 C 101.183594 17.894531 100.957031 18.34375 100.652344 18.710938 C 100.351562 19.078125 99.984375 19.355469 99.546875 19.550781 C 99.117188 19.746094 98.625 19.84375 98.0625 19.84375 C 97.742188 19.84375 97.484375 19.820312 97.277344 19.773438 C 97.074219 19.734375 96.871094 19.65625 96.664062 19.550781 L 96.664062 22.71875 L 94.671875 22.71875 Z M 98.089844 13.402344 C 97.703125 13.402344 97.398438 13.503906 97.175781 13.695312 C 96.953125 13.894531 96.785156 14.1875 96.664062 14.578125 L 96.664062 17.78125 C 96.808594 17.898438 96.96875 17.988281 97.136719 18.054688 C 97.300781 18.125 97.523438 18.15625 97.800781 18.15625 C 98.367188 18.15625 98.796875 17.953125 99.085938 17.550781 C 99.371094 17.140625 99.519531 16.464844 99.519531 15.527344 C 99.519531 14.855469 99.402344 14.332031 99.175781 13.960938 C 98.957031 13.589844 98.59375 13.402344 98.089844 13.402344 Z M 98.089844 13.402344 " fill-opacity="1" fill-rule="nonzero"/><path fill="#ffffff" d="M 102.578125 15.78125 C 102.578125 14.472656 102.894531 13.46875 103.523438 12.765625 C 104.160156 12.058594 105.050781 11.703125 106.199219 11.703125 C 106.8125 11.703125 107.347656 11.804688 107.796875 11.996094 C 108.242188 12.195312 108.617188 12.46875 108.914062 12.828125 C 109.207031 13.179688 109.425781 13.605469 109.574219 14.113281 C 109.730469 14.617188 109.808594 15.171875 109.808594 15.78125 C 109.808594 17.082031 109.488281 18.085938 108.863281 18.792969 C 108.230469 19.496094 107.34375 19.84375 106.199219 19.84375 C 105.585938 19.84375 105.058594 19.746094 104.609375 19.550781 C 104.160156 19.355469 103.785156 19.085938 103.484375 18.734375 C 103.183594 18.375 102.953125 17.949219 102.800781 17.449219 C 102.652344 16.941406 102.578125 16.386719 102.578125 15.78125 Z M 104.640625 15.78125 C 104.640625 16.117188 104.671875 16.433594 104.730469 16.71875 C 104.789062 17.003906 104.882812 17.257812 105 17.480469 C 105.128906 17.695312 105.289062 17.863281 105.484375 17.984375 C 105.683594 18.101562 105.921875 18.15625 106.199219 18.15625 C 106.71875 18.15625 107.109375 17.96875 107.363281 17.589844 C 107.617188 17.207031 107.746094 16.605469 107.746094 15.78125 C 107.746094 15.070312 107.628906 14.5 107.394531 14.0625 C 107.15625 13.625 106.761719 13.402344 106.199219 13.402344 C 105.707031 13.402344 105.324219 13.589844 105.050781 13.960938 C 104.777344 14.332031 104.640625 14.9375 104.640625 15.78125 Z M 104.640625 15.78125 " fill-opacity="1" fill-rule="nonzero"/><path fill="#ffffff" d="M 115.414062 13.808594 C 115.097656 13.695312 114.8125 13.636719 114.550781 13.636719 C 114.195312 13.636719 113.898438 13.730469 113.65625 13.917969 C 113.414062 14.109375 113.253906 14.351562 113.171875 14.648438 L 113.171875 19.632812 L 111.183594 19.632812 L 111.183594 11.925781 L 112.730469 11.925781 L 112.960938 12.9375 L 113.023438 12.9375 C 113.195312 12.5625 113.429688 12.269531 113.726562 12.070312 C 114.019531 11.859375 114.371094 11.753906 114.773438 11.753906 C 115.03125 11.753906 115.335938 11.8125 115.675781 11.925781 Z M 115.414062 13.808594 " fill-opacity="1" fill-rule="nonzero"/><path fill="#ffffff" d="M 116.230469 11.925781 L 117.285156 11.925781 L 117.285156 10.472656 L 119.277344 9.90625 L 119.277344 11.925781 L 121.144531 11.925781 L 121.144531 13.617188 L 119.277344 13.617188 L 119.277344 16.578125 C 119.277344 17.113281 119.328125 17.496094 119.4375 17.730469 C 119.542969 17.960938 119.742188 18.074219 120.039062 18.074219 C 120.246094 18.074219 120.425781 18.054688 120.574219 18.015625 C 120.71875 17.972656 120.886719 17.914062 121.074219 17.832031 L 121.425781 19.371094 C 121.144531 19.507812 120.820312 19.617188 120.453125 19.703125 C 120.089844 19.796875 119.71875 19.84375 119.335938 19.84375 C 118.632812 19.84375 118.113281 19.664062 117.777344 19.300781 C 117.449219 18.933594 117.285156 18.339844 117.285156 17.507812 L 117.285156 13.617188 L 116.230469 13.617188 Z M 116.230469 11.925781 " fill-opacity="1" fill-rule="nonzero"/><path fill="#ffffff" d="M 122.324219 12.371094 C 122.730469 12.183594 123.21875 12.035156 123.78125 11.925781 C 124.34375 11.820312 124.933594 11.765625 125.550781 11.765625 C 126.078125 11.765625 126.519531 11.832031 126.878906 11.957031 C 127.238281 12.085938 127.523438 12.269531 127.730469 12.511719 C 127.9375 12.75 128.085938 13.035156 128.175781 13.363281 C 128.257812 13.6875 128.304688 14.054688 128.304688 14.464844 C 128.304688 14.917969 128.289062 15.371094 128.253906 15.832031 C 128.226562 16.289062 128.210938 16.742188 128.203125 17.1875 C 128.195312 17.625 128.210938 18.050781 128.246094 18.46875 C 128.277344 18.890625 128.355469 19.285156 128.476562 19.652344 L 126.847656 19.652344 L 126.527344 18.582031 L 126.457031 18.582031 C 126.246094 18.90625 125.960938 19.183594 125.601562 19.410156 C 125.238281 19.636719 124.769531 19.753906 124.195312 19.753906 C 123.835938 19.753906 123.515625 19.699219 123.226562 19.59375 C 122.945312 19.484375 122.699219 19.335938 122.496094 19.136719 C 122.292969 18.933594 122.136719 18.699219 122.023438 18.429688 C 121.90625 18.152344 121.851562 17.847656 121.851562 17.507812 C 121.851562 17.03125 121.953125 16.628906 122.164062 16.304688 C 122.375 15.980469 122.679688 15.722656 123.066406 15.527344 C 123.460938 15.324219 123.933594 15.1875 124.476562 15.113281 C 125.023438 15.03125 125.636719 15.007812 126.316406 15.042969 C 126.386719 14.460938 126.347656 14.046875 126.195312 13.796875 C 126.039062 13.542969 125.695312 13.414062 125.160156 13.414062 C 124.761719 13.414062 124.339844 13.460938 123.890625 13.546875 C 123.449219 13.625 123.085938 13.734375 122.804688 13.867188 Z M 124.855469 18.105469 C 125.25 18.105469 125.566406 18.019531 125.800781 17.84375 C 126.042969 17.660156 126.214844 17.464844 126.324219 17.257812 L 126.324219 16.253906 C 126.007812 16.222656 125.703125 16.21875 125.410156 16.246094 C 125.121094 16.265625 124.863281 16.3125 124.636719 16.386719 C 124.414062 16.453125 124.234375 16.554688 124.101562 16.691406 C 123.96875 16.828125 123.902344 16.992188 123.902344 17.195312 C 123.902344 17.488281 123.984375 17.710938 124.152344 17.875 C 124.328125 18.03125 124.558594 18.105469 124.855469 18.105469 Z M 124.855469 18.105469 " fill-opacity="1" fill-rule="nonzero"/><path fill="#ffffff" d="M 133.152344 17.507812 C 133.152344 17.300781 133.066406 17.136719 132.894531 17.011719 C 132.714844 16.886719 132.5 16.769531 132.238281 16.667969 C 131.984375 16.570312 131.703125 16.464844 131.394531 16.355469 C 131.09375 16.25 130.8125 16.101562 130.558594 15.910156 C 130.304688 15.722656 130.089844 15.484375 129.917969 15.195312 C 129.742188 14.898438 129.65625 14.515625 129.65625 14.050781 C 129.65625 13.289062 129.878906 12.710938 130.328125 12.3125 C 130.777344 11.90625 131.425781 11.703125 132.28125 11.703125 C 132.863281 11.703125 133.386719 11.769531 133.859375 11.898438 C 134.324219 12.019531 134.695312 12.15625 134.964844 12.3125 L 134.511719 13.757812 C 134.273438 13.664062 133.976562 13.566406 133.617188 13.464844 C 133.257812 13.363281 132.902344 13.3125 132.539062 13.3125 C 131.941406 13.3125 131.644531 13.542969 131.644531 14 C 131.644531 14.191406 131.730469 14.339844 131.90625 14.457031 C 132.082031 14.5625 132.292969 14.667969 132.550781 14.769531 C 132.804688 14.863281 133.085938 14.96875 133.394531 15.082031 C 133.703125 15.199219 133.984375 15.34375 134.238281 15.527344 C 134.492188 15.703125 134.707031 15.9375 134.882812 16.226562 C 135.054688 16.515625 135.144531 16.886719 135.144531 17.335938 C 135.144531 18.121094 134.894531 18.734375 134.402344 19.179688 C 133.902344 19.621094 133.160156 19.84375 132.167969 19.84375 C 131.625 19.84375 131.117188 19.773438 130.640625 19.632812 C 130.164062 19.5 129.777344 19.339844 129.484375 19.15625 L 130.039062 17.660156 C 130.269531 17.796875 130.582031 17.929688 130.972656 18.054688 C 131.359375 18.183594 131.757812 18.246094 132.167969 18.246094 C 132.464844 18.246094 132.703125 18.191406 132.882812 18.074219 C 133.0625 17.960938 133.152344 17.773438 133.152344 17.507812 Z M 133.152344 17.507812 " fill-opacity="1" fill-rule="nonzero"/><path fill="#ffffff" d="M 136.617188 11.925781 L 138.609375 11.925781 L 138.609375 19.632812 L 136.617188 19.632812 Z M 136.316406 9.742188 C 136.316406 9.445312 136.425781 9.195312 136.648438 8.984375 C 136.867188 8.777344 137.171875 8.671875 137.5625 8.671875 C 137.949219 8.671875 138.265625 8.777344 138.507812 8.984375 C 138.75 9.195312 138.871094 9.445312 138.871094 9.742188 C 138.871094 10.046875 138.75 10.300781 138.507812 10.5 C 138.265625 10.699219 137.949219 10.792969 137.5625 10.792969 C 137.171875 10.792969 136.867188 10.699219 136.648438 10.5 C 136.425781 10.300781 136.316406 10.046875 136.316406 9.742188 Z M 136.316406 9.742188 " fill-opacity="1" fill-rule="nonzero"/><path fill="#ffffff" d="M 68.140625 33.53125 L 68.363281 31.386719 L 68.273438 31.386719 L 67.617188 33.117188 L 65.328125 37.140625 L 64.652344 37.140625 L 62.25 33.105469 L 61.578125 31.386719 L 61.496094 31.386719 L 61.808594 33.523438 L 61.808594 39.132812 L 59.808594 39.132812 L 59.808594 28.34375 L 61.726562 28.34375 L 64.59375 33.277344 L 65.105469 34.511719 L 65.164062 34.511719 L 65.617188 33.238281 L 68.332031 28.34375 L 70.230469 28.34375 L 70.230469 39.132812 L 68.140625 39.132812 Z M 68.140625 33.53125 " fill-opacity="1" fill-rule="nonzero"/><path fill="#ffffff" d="M 77.371094 36.746094 L 74.070312 36.746094 L 73.257812 39.132812 L 71.15625 39.132812 L 75.015625 28.261719 L 76.566406 28.261719 L 80.433594 39.132812 L 78.222656 39.132812 Z M 74.605469 35.046875 L 76.90625 35.046875 L 76.113281 32.640625 L 75.789062 30.941406 L 75.710938 30.941406 L 75.390625 32.664062 Z M 74.605469 35.046875 " fill-opacity="1" fill-rule="nonzero"/><path fill="#ffffff" d="M 84.019531 33.5 L 83.175781 31.8125 L 83.09375 31.8125 L 83.347656 33.5 L 83.347656 39.132812 L 81.347656 39.132812 L 81.347656 28.261719 L 82.882812 28.261719 L 86.945312 34.015625 L 87.757812 35.664062 L 87.839844 35.664062 L 87.589844 34.015625 L 87.589844 28.34375 L 89.578125 28.34375 L 89.578125 39.214844 L 88.050781 39.214844 Z M 84.019531 33.5 " fill-opacity="1" fill-rule="nonzero"/><path fill="#ffffff" d="M 95.074219 31.710938 C 95.074219 31.191406 95.148438 30.714844 95.304688 30.277344 C 95.46875 29.832031 95.699219 29.453125 96 29.144531 C 96.300781 28.828125 96.664062 28.578125 97.09375 28.394531 C 97.53125 28.210938 98.03125 28.121094 98.59375 28.121094 C 99.75 28.121094 100.660156 28.46875 101.316406 29.164062 C 101.972656 29.859375 102.300781 30.871094 102.300781 32.195312 C 102.300781 33.390625 102.152344 34.421875 101.851562 35.292969 C 101.546875 36.15625 101.140625 36.878906 100.632812 37.464844 C 100.132812 38.046875 99.546875 38.492188 98.886719 38.800781 C 98.222656 39.105469 97.519531 39.285156 96.785156 39.347656 L 96.363281 37.777344 C 96.925781 37.707031 97.421875 37.566406 97.859375 37.363281 C 98.300781 37.15625 98.679688 36.898438 98.996094 36.597656 C 99.308594 36.292969 99.570312 35.949219 99.769531 35.566406 C 99.96875 35.179688 100.109375 34.765625 100.191406 34.320312 C 99.941406 34.589844 99.679688 34.777344 99.398438 34.875 C 99.117188 34.976562 98.738281 35.027344 98.273438 35.027344 C 97.882812 35.027344 97.496094 34.964844 97.117188 34.835938 C 96.734375 34.703125 96.390625 34.5 96.089844 34.230469 C 95.789062 33.953125 95.542969 33.609375 95.355469 33.1875 C 95.167969 32.769531 95.074219 32.277344 95.074219 31.710938 Z M 97.003906 31.609375 C 97.003906 32.195312 97.164062 32.640625 97.488281 32.933594 C 97.8125 33.234375 98.226562 33.378906 98.722656 33.378906 C 99.136719 33.378906 99.476562 33.316406 99.738281 33.1875 C 100.003906 33.054688 100.214844 32.890625 100.363281 32.691406 C 100.386719 32.476562 100.402344 32.273438 100.402344 32.074219 C 100.402344 31.789062 100.363281 31.503906 100.292969 31.226562 C 100.222656 30.949219 100.117188 30.707031 99.96875 30.488281 C 99.820312 30.265625 99.632812 30.089844 99.398438 29.960938 C 99.167969 29.835938 98.898438 29.769531 98.582031 29.769531 C 98.082031 29.769531 97.691406 29.933594 97.417969 30.253906 C 97.140625 30.578125 97.003906 31.03125 97.003906 31.609375 Z M 97.003906 31.609375 " fill-opacity="1" fill-rule="nonzero"/><path fill="#ffffff" d="M 108.960938 28.34375 L 111.0625 28.34375 L 111.0625 36.230469 C 111.0625 36.644531 111.015625 37.035156 110.921875 37.40625 C 110.828125 37.777344 110.675781 38.101562 110.46875 38.386719 C 110.261719 38.667969 109.992188 38.898438 109.664062 39.0625 C 109.335938 39.230469 108.9375 39.316406 108.46875 39.316406 C 108.171875 39.316406 107.851562 39.285156 107.503906 39.226562 C 107.15625 39.164062 106.855469 39.078125 106.601562 38.960938 L 107.0625 37.234375 C 107.324219 37.371094 107.625 37.433594 107.96875 37.433594 C 108.394531 37.433594 108.664062 37.277344 108.78125 36.960938 C 108.902344 36.644531 108.960938 36.222656 108.960938 35.695312 Z M 108.960938 28.34375 " fill-opacity="1" fill-rule="nonzero"/><path fill="#ffffff" d="M 112.894531 31.875 C 113.304688 31.6875 113.789062 31.539062 114.355469 31.429688 C 114.917969 31.320312 115.503906 31.265625 116.121094 31.265625 C 116.652344 31.265625 117.09375 31.332031 117.449219 31.457031 C 117.8125 31.585938 118.097656 31.773438 118.304688 32.015625 C 118.511719 32.253906 118.660156 32.535156 118.746094 32.863281 C 118.832031 33.1875 118.878906 33.558594 118.878906 33.964844 C 118.878906 34.417969 118.859375 34.875 118.828125 35.332031 C 118.800781 35.792969 118.78125 36.242188 118.777344 36.6875 C 118.769531 37.125 118.78125 37.554688 118.816406 37.972656 C 118.851562 38.390625 118.925781 38.785156 119.046875 39.15625 L 117.417969 39.15625 L 117.097656 38.082031 L 117.027344 38.082031 C 116.820312 38.40625 116.535156 38.683594 116.171875 38.910156 C 115.8125 39.140625 115.339844 39.253906 114.765625 39.253906 C 114.410156 39.253906 114.085938 39.199219 113.800781 39.09375 C 113.519531 38.988281 113.273438 38.835938 113.066406 38.640625 C 112.867188 38.4375 112.707031 38.203125 112.59375 37.929688 C 112.480469 37.65625 112.421875 37.347656 112.421875 37.011719 C 112.421875 36.53125 112.527344 36.128906 112.734375 35.808594 C 112.949219 35.484375 113.25 35.226562 113.640625 35.027344 C 114.035156 34.828125 114.503906 34.691406 115.046875 34.613281 C 115.59375 34.53125 116.207031 34.511719 116.886719 34.542969 C 116.960938 33.964844 116.917969 33.550781 116.765625 33.300781 C 116.609375 33.042969 116.265625 32.914062 115.730469 32.914062 C 115.332031 32.914062 114.910156 32.960938 114.464844 33.046875 C 114.023438 33.128906 113.660156 33.234375 113.378906 33.371094 Z M 115.429688 37.605469 C 115.824219 37.605469 116.136719 37.519531 116.375 37.34375 C 116.617188 37.164062 116.789062 36.96875 116.898438 36.757812 L 116.898438 35.757812 C 116.582031 35.722656 116.277344 35.722656 115.980469 35.746094 C 115.691406 35.765625 115.433594 35.816406 115.207031 35.886719 C 114.988281 35.957031 114.808594 36.058594 114.675781 36.191406 C 114.539062 36.328125 114.472656 36.496094 114.472656 36.695312 C 114.472656 36.988281 114.558594 37.210938 114.726562 37.375 C 114.898438 37.53125 115.132812 37.605469 115.429688 37.605469 Z M 115.429688 37.605469 " fill-opacity="1" fill-rule="nonzero"/><path fill="#ffffff" d="M 123.082031 35.9375 L 122.539062 35.9375 L 122.539062 39.132812 L 120.550781 39.132812 L 120.550781 28.34375 L 122.539062 28.34375 L 122.539062 34.703125 L 123.003906 34.492188 L 124.75 31.429688 L 126.945312 31.429688 L 125.105469 34.351562 L 124.320312 34.9375 L 125.164062 35.542969 L 127.234375 39.132812 L 124.953125 39.132812 Z M 123.082031 35.9375 " fill-opacity="1" fill-rule="nonzero"/><path fill="#ffffff" d="M 128.027344 31.875 C 128.433594 31.6875 128.921875 31.539062 129.484375 31.429688 C 130.046875 31.320312 130.636719 31.265625 131.253906 31.265625 C 131.78125 31.265625 132.222656 31.332031 132.582031 31.457031 C 132.941406 31.585938 133.226562 31.773438 133.433594 32.015625 C 133.640625 32.253906 133.789062 32.535156 133.878906 32.863281 C 133.960938 33.1875 134.007812 33.558594 134.007812 33.964844 C 134.007812 34.417969 133.992188 34.875 133.957031 35.332031 C 133.929688 35.792969 133.914062 36.242188 133.90625 36.6875 C 133.898438 37.125 133.914062 37.554688 133.949219 37.972656 C 133.980469 38.390625 134.058594 38.785156 134.179688 39.15625 L 132.550781 39.15625 L 132.230469 38.082031 L 132.15625 38.082031 C 131.949219 38.40625 131.664062 38.683594 131.304688 38.910156 C 130.941406 39.140625 130.472656 39.253906 129.894531 39.253906 C 129.539062 39.253906 129.21875 39.199219 128.929688 39.09375 C 128.648438 38.988281 128.402344 38.835938 128.199219 38.640625 C 127.996094 38.4375 127.839844 38.203125 127.726562 37.929688 C 127.609375 37.65625 127.554688 37.347656 127.554688 37.011719 C 127.554688 36.53125 127.65625 36.128906 127.867188 35.808594 C 128.078125 35.484375 128.382812 35.226562 128.769531 35.027344 C 129.164062 34.828125 129.636719 34.691406 130.179688 34.613281 C 130.726562 34.53125 131.339844 34.511719 132.015625 34.542969 C 132.089844 33.964844 132.050781 33.550781 131.898438 33.300781 C 131.742188 33.042969 131.398438 32.914062 130.863281 32.914062 C 130.464844 32.914062 130.042969 32.960938 129.59375 33.046875 C 129.152344 33.128906 128.789062 33.234375 128.507812 33.371094 Z M 130.558594 37.605469 C 130.953125 37.605469 131.269531 37.519531 131.503906 37.34375 C 131.746094 37.164062 131.917969 36.96875 132.027344 36.757812 L 132.027344 35.757812 C 131.710938 35.722656 131.40625 35.722656 131.113281 35.746094 C 130.824219 35.765625 130.566406 35.816406 130.339844 35.886719 C 130.117188 35.957031 129.9375 36.058594 129.804688 36.191406 C 129.671875 36.328125 129.605469 36.496094 129.605469 36.695312 C 129.605469 36.988281 129.6875 37.210938 129.855469 37.375 C 130.03125 37.53125 130.261719 37.605469 130.558594 37.605469 Z M 130.558594 37.605469 " fill-opacity="1" fill-rule="nonzero"/><path fill="#ffffff" d="M 139.914062 33.308594 C 139.597656 33.195312 139.308594 33.136719 139.046875 33.136719 C 138.691406 33.136719 138.394531 33.234375 138.152344 33.421875 C 137.910156 33.609375 137.75 33.851562 137.671875 34.148438 L 137.671875 39.132812 L 135.679688 39.132812 L 135.679688 31.429688 L 137.226562 31.429688 L 137.460938 32.441406 L 137.519531 32.441406 C 137.695312 32.0625 137.925781 31.773438 138.222656 31.570312 C 138.519531 31.363281 138.867188 31.257812 139.269531 31.257812 C 139.53125 31.257812 139.832031 31.316406 140.175781 31.429688 Z M 139.914062 33.308594 " fill-opacity="1" fill-rule="nonzero"/><path fill="#ffffff" d="M 140.726562 31.429688 L 141.78125 31.429688 L 141.78125 29.972656 L 143.773438 29.40625 L 143.773438 31.429688 L 145.644531 31.429688 L 145.644531 33.117188 L 143.773438 33.117188 L 143.773438 36.082031 C 143.773438 36.613281 143.824219 36.996094 143.933594 37.234375 C 144.039062 37.464844 144.242188 37.578125 144.535156 37.578125 C 144.742188 37.578125 144.921875 37.554688 145.070312 37.515625 C 145.214844 37.476562 145.382812 37.414062 145.574219 37.335938 L 145.925781 38.871094 C 145.644531 39.007812 145.316406 39.117188 144.949219 39.203125 C 144.585938 39.296875 144.214844 39.347656 143.832031 39.347656 C 143.128906 39.347656 142.609375 39.164062 142.273438 38.800781 C 141.945312 38.4375 141.78125 37.839844 141.78125 37.011719 L 141.78125 33.117188 L 140.726562 33.117188 Z M 140.726562 31.429688 " fill-opacity="1" fill-rule="nonzero"/><path fill="#ffffff" d="M 146.820312 31.875 C 147.226562 31.6875 147.714844 31.539062 148.277344 31.429688 C 148.839844 31.320312 149.429688 31.265625 150.046875 31.265625 C 150.574219 31.265625 151.019531 31.332031 151.375 31.457031 C 151.738281 31.585938 152.019531 31.773438 152.230469 32.015625 C 152.433594 32.253906 152.582031 32.535156 152.671875 32.863281 C 152.757812 33.1875 152.800781 33.558594 152.800781 33.964844 C 152.800781 34.417969 152.785156 34.875 152.753906 35.332031 C 152.722656 35.792969 152.707031 36.242188 152.703125 36.6875 C 152.695312 37.125 152.707031 37.554688 152.742188 37.972656 C 152.773438 38.390625 152.851562 38.785156 152.972656 39.15625 L 151.34375 39.15625 L 151.023438 38.082031 L 150.953125 38.082031 C 150.742188 38.40625 150.460938 38.683594 150.097656 38.910156 C 149.734375 39.140625 149.265625 39.253906 148.691406 39.253906 C 148.332031 39.253906 148.011719 39.199219 147.726562 39.09375 C 147.445312 38.988281 147.199219 38.835938 146.992188 38.640625 C 146.789062 38.4375 146.632812 38.203125 146.519531 37.929688 C 146.402344 37.65625 146.347656 37.347656 146.347656 37.011719 C 146.347656 36.53125 146.453125 36.128906 146.660156 35.808594 C 146.875 35.484375 147.175781 35.226562 147.566406 35.027344 C 147.960938 34.828125 148.429688 34.691406 148.972656 34.613281 C 149.519531 34.53125 150.132812 34.511719 150.8125 34.542969 C 150.882812 33.964844 150.84375 33.550781 150.691406 33.300781 C 150.535156 33.042969 150.191406 32.914062 149.65625 32.914062 C 149.257812 32.914062 148.835938 32.960938 148.390625 33.046875 C 147.945312 33.128906 147.585938 33.234375 147.304688 33.371094 Z M 149.355469 37.605469 C 149.75 37.605469 150.0625 37.519531 150.300781 37.34375 C 150.539062 37.164062 150.714844 36.96875 150.820312 36.757812 L 150.820312 35.757812 C 150.503906 35.722656 150.203125 35.722656 149.90625 35.746094 C 149.617188 35.765625 149.359375 35.816406 149.132812 35.886719 C 148.910156 35.957031 148.734375 36.058594 148.601562 36.191406 C 148.464844 36.328125 148.398438 36.496094 148.398438 36.695312 C 148.398438 36.988281 148.480469 37.210938 148.652344 37.375 C 148.824219 37.53125 149.058594 37.605469 149.355469 37.605469 Z M 149.355469 37.605469 " fill-opacity="1" fill-rule="nonzero"/><g clip-path="url(#8ec5164eba)"><g clip-path="url(#fc2e8b40eb)"><path stroke-linecap="butt" transform="matrix(0.0143955, 0, 0, 0.0143955, 11.929399, 39.500303)" fill="none" stroke-linejoin="miter" d="M 50.491437 -0.0210161 C 22.54223 -0.0210161 0.0200526 22.772512 0.0200526 50.450368 C 0.0200526 78.399576 22.54223 101.193104 50.491437 101.193104 C 78.440645 101.193104 101.234173 78.399576 101.234173 50.450368 C 101.234173 22.772512 78.440645 -0.0210161 50.491437 -0.0210161 Z M 50.491437 -0.0210161 " stroke="#ffffff" stroke-width="20" stroke-opacity="1" stroke-miterlimit="4"/></g></g><g clip-path="url(#6c84eaab34)"><path fill="#ffffff" d="M 12.472656 40.109375 C 12.472656 40.082031 12.476562 40.054688 12.484375 40.03125 C 12.496094 40.007812 12.507812 39.988281 12.523438 39.96875 C 12.539062 39.953125 12.558594 39.941406 12.582031 39.929688 C 12.605469 39.921875 12.632812 39.917969 12.664062 39.917969 C 12.726562 39.917969 12.777344 39.933594 12.8125 39.972656 C 12.847656 40.011719 12.867188 40.0625 12.867188 40.136719 C 12.867188 40.199219 12.859375 40.257812 12.839844 40.304688 C 12.824219 40.351562 12.804688 40.390625 12.777344 40.421875 C 12.75 40.453125 12.714844 40.476562 12.679688 40.492188 C 12.644531 40.507812 12.605469 40.519531 12.566406 40.523438 L 12.542969 40.4375 C 12.574219 40.433594 12.601562 40.425781 12.625 40.414062 C 12.648438 40.402344 12.667969 40.390625 12.6875 40.375 C 12.703125 40.359375 12.71875 40.339844 12.730469 40.316406 C 12.738281 40.296875 12.746094 40.273438 12.75 40.25 C 12.738281 40.265625 12.722656 40.277344 12.707031 40.28125 C 12.691406 40.285156 12.671875 40.289062 12.648438 40.289062 C 12.625 40.289062 12.605469 40.285156 12.585938 40.277344 C 12.5625 40.269531 12.542969 40.261719 12.527344 40.246094 C 12.511719 40.230469 12.5 40.210938 12.488281 40.191406 C 12.476562 40.167969 12.472656 40.140625 12.472656 40.109375 Z M 12.578125 40.105469 C 12.578125 40.136719 12.585938 40.160156 12.605469 40.175781 C 12.621094 40.191406 12.644531 40.199219 12.671875 40.199219 C 12.695312 40.199219 12.710938 40.195312 12.726562 40.1875 C 12.742188 40.183594 12.753906 40.171875 12.761719 40.164062 C 12.761719 40.152344 12.761719 40.140625 12.761719 40.128906 C 12.761719 40.113281 12.761719 40.097656 12.757812 40.082031 C 12.753906 40.070312 12.746094 40.054688 12.738281 40.042969 C 12.730469 40.03125 12.722656 40.023438 12.707031 40.015625 C 12.695312 40.007812 12.679688 40.003906 12.664062 40.003906 C 12.636719 40.003906 12.617188 40.015625 12.601562 40.03125 C 12.585938 40.050781 12.578125 40.074219 12.578125 40.105469 Z M 12.578125 40.105469 " fill-opacity="1" fill-rule="nonzero"/></g></svg>