<svg xmlns="http://www.w3.org/2000/svg" xmlns:xlink="http://www.w3.org/1999/xlink" width="84" zoomAndPan="magnify" viewBox="0 0 63 62.999997" height="84" preserveAspectRatio="xMidYMid meet" version="1.0"><defs><clipPath id="45e1395233"><path d="M 0 0 L 62.25 0 L 62.25 62.25 L 0 62.25 Z M 0 0 " clip-rule="nonzero"/></clipPath></defs><g clip-path="url(#45e1395233)"><path fill="#0a1b29" d="M 0 46.800781 L 0 15.601562 C 0 7.019531 7.019531 0 15.597656 0 L 46.800781 0 C 55.378906 0 62.398438 7.019531 62.398438 15.597656 L 62.398438 46.800781 C 62.398438 55.382812 55.378906 62.402344 46.800781 62.402344 L 15.601562 62.402344 C 7.019531 62.402344 0 55.378906 0 46.800781 Z M 0 46.800781 " fill-opacity="1" fill-rule="nonzero"/></g><path fill="#ffffff" d="M 31.492188 36.257812 L 31.492188 36.25 C 29.769531 36.25 28.046875 36.28125 26.328125 36.242188 C 24.550781 36.199219 23.171875 34.929688 22.894531 33.183594 C 22.613281 31.425781 22.316406 29.667969 22.023438 27.914062 C 21.375 24.027344 20.726562 20.140625 20.082031 16.253906 C 19.945312 15.417969 20.394531 14.738281 21.183594 14.566406 C 21.300781 14.542969 21.425781 14.53125 21.546875 14.511719 C 24.011719 14.109375 26.46875 13.664062 28.964844 13.476562 C 31.261719 13.304688 33.546875 13.386719 35.832031 13.644531 C 37.816406 13.875 39.777344 14.246094 41.75 14.554688 C 42.527344 14.675781 43.0625 15.386719 42.9375 16.152344 C 42.628906 18.039062 42.3125 19.925781 41.996094 21.8125 C 41.457031 25.074219 40.914062 28.335938 40.371094 31.597656 C 40.261719 32.242188 40.183594 32.894531 40.039062 33.535156 C 39.671875 35.160156 38.222656 36.25 36.441406 36.257812 C 34.792969 36.265625 33.140625 36.257812 31.492188 36.257812 Z M 43.199219 41.507812 L 43.769531 38.542969 C 44.0625 36.773438 44.414062 35.011719 44.578125 33.21875 C 44.632812 32.640625 44.667969 32.054688 44.671875 31.472656 C 44.679688 29.125 44.675781 26.777344 44.675781 24.429688 C 44.675781 21.683594 44.648438 18.9375 44.683594 16.191406 C 44.703125 14.699219 43.613281 13.335938 41.96875 13.078125 C 40.257812 12.808594 38.550781 12.542969 36.835938 12.304688 C 34.015625 11.914062 31.1875 11.816406 28.347656 12.066406 C 25.988281 12.269531 23.660156 12.699219 21.320312 13.035156 C 20.316406 13.179688 19.480469 13.566406 18.871094 14.390625 C 18.464844 14.941406 18.316406 15.566406 18.316406 16.238281 C 18.320312 21.167969 18.320312 26.101562 18.316406 31.03125 C 18.316406 33.089844 18.644531 35.109375 18.992188 37.128906 C 19.089844 37.714844 19.183594 38.300781 19.277344 38.886719 L 19.800781 41.519531 " fill-opacity="1" fill-rule="nonzero"/><path fill="#ffffff" d="M 43.199219 41.507812 C 43.097656 41.996094 43 42.492188 42.855469 42.96875 C 42.515625 44.089844 41.757812 44.789062 40.621094 45.070312 C 40.25 45.160156 39.871094 45.09375 39.449219 45.148438 L 42.566406 50.464844 C 41.835938 50.464844 41.171875 50.460938 40.507812 50.472656 C 40.320312 50.472656 40.21875 50.414062 40.125 50.253906 C 39.171875 48.625 38.207031 47.007812 37.257812 45.382812 C 37.144531 45.1875 37.023438 45.121094 36.800781 45.121094 C 33.292969 45.128906 29.789062 45.128906 26.28125 45.121094 C 26 45.117188 25.847656 45.203125 25.707031 45.445312 C 24.769531 47.058594 23.8125 48.660156 22.867188 50.261719 C 22.808594 50.355469 22.78125 50.46875 22.632812 50.46875 C 21.917969 50.464844 21.203125 50.464844 20.488281 50.464844 C 20.480469 50.324219 20.5625 50.25 20.609375 50.167969 C 21.511719 48.628906 22.414062 47.09375 23.316406 45.558594 C 23.386719 45.433594 23.546875 45.296875 23.492188 45.1875 C 23.417969 45.042969 23.210938 45.128906 23.066406 45.128906 C 21.605469 45.125 20.476562 44.253906 20.113281 42.832031 C 20 42.398438 19.902344 41.957031 19.800781 41.519531 " fill-opacity="1" fill-rule="nonzero"/><path fill="#ffffff" d="M 28.128906 33.410156 C 27.621094 33.410156 27.222656 33.011719 27.21875 32.503906 C 27.21875 32 27.613281 31.59375 28.117188 31.585938 C 28.628906 31.578125 29.046875 31.996094 29.042969 32.507812 C 29.035156 33.011719 28.632812 33.410156 28.128906 33.410156 Z M 37.558594 30.898438 C 38.054688 30.890625 38.472656 31.296875 38.484375 31.792969 C 38.496094 32.300781 38.066406 32.734375 37.5625 32.730469 C 37.0625 32.726562 36.65625 32.316406 36.65625 31.8125 C 36.65625 31.308594 37.054688 30.90625 37.558594 30.898438 Z M 34.902344 33.410156 C 34.398438 33.414062 33.988281 33.019531 33.972656 32.519531 C 33.960938 32.007812 34.378906 31.582031 34.890625 31.585938 C 35.394531 31.585938 35.796875 31.988281 35.800781 32.492188 C 35.804688 32.996094 35.40625 33.40625 34.902344 33.410156 Z M 24.546875 31.816406 C 24.542969 31.304688 24.933594 30.90625 25.441406 30.898438 C 25.953125 30.890625 26.371094 31.308594 26.363281 31.824219 C 26.355469 32.324219 25.945312 32.730469 25.449219 32.726562 C 24.941406 32.722656 24.546875 32.324219 24.546875 31.816406 Z M 31.488281 19.980469 C 34.160156 19.980469 36.832031 19.980469 39.5 19.980469 C 40.054688 19.980469 40.355469 20.324219 40.269531 20.859375 C 39.863281 23.347656 39.457031 25.832031 39.046875 28.320312 C 38.96875 28.804688 38.726562 29 38.234375 29 C 33.746094 29 29.257812 29 24.769531 29 C 24.300781 29 24.042969 28.785156 23.96875 28.328125 C 23.5625 25.863281 23.160156 23.398438 22.765625 20.929688 C 22.660156 20.285156 22.9375 19.980469 23.59375 19.980469 Z M 31.539062 35.277344 C 32.957031 35.277344 34.378906 35.238281 35.796875 35.289062 C 37.570312 35.351562 39.136719 34.28125 39.457031 32.171875 C 40.148438 27.632812 40.945312 23.105469 41.695312 18.574219 C 41.789062 18.007812 41.890625 17.4375 41.964844 16.867188 C 42.054688 16.179688 41.644531 15.570312 40.976562 15.457031 C 38.335938 15.003906 35.699219 14.523438 33.015625 14.390625 C 30.34375 14.261719 27.699219 14.519531 25.066406 14.945312 C 24.128906 15.097656 23.1875 15.261719 22.25 15.410156 C 21.371094 15.546875 20.929688 16.15625 21.078125 17.042969 C 21.933594 22.199219 22.789062 27.359375 23.644531 32.515625 C 23.917969 34.171875 25.238281 35.269531 26.976562 35.277344 C 28.496094 35.285156 30.015625 35.277344 31.539062 35.277344 Z M 31.539062 35.277344 " fill-opacity="1" fill-rule="nonzero"/></svg>