<svg xmlns="http://www.w3.org/2000/svg" xmlns:xlink="http://www.w3.org/1999/xlink" width="84" zoomAndPan="magnify" viewBox="0 0 63 62.999997" height="84" preserveAspectRatio="xMidYMid meet" version="1.0"><defs><clipPath id="ee712308ac"><path d="M 0 0 L 62.25 0 L 62.25 62.25 L 0 62.25 Z M 0 0 " clip-rule="nonzero"/></clipPath></defs><g clip-path="url(#ee712308ac)"><path fill="#0a1b29" d="M 0 46.710938 L 0 15.570312 C 0 7.007812 7.007812 0 15.570312 0 L 46.714844 0 C 55.277344 0 62.28125 7.007812 62.28125 15.570312 L 62.28125 46.714844 C 62.28125 55.277344 55.277344 62.285156 46.710938 62.285156 L 15.570312 62.285156 C 7.007812 62.285156 0 55.277344 0 46.710938 Z M 0 46.710938 " fill-opacity="1" fill-rule="nonzero"/></g><path fill="#f9f6ff" d="M 43.785156 26.253906 L 43.785156 33.273438 C 43.785156 34.078125 43.144531 34.871094 42.359375 35.042969 C 42.359375 35.042969 37.683594 35.863281 31.140625 35.863281 C 24.601562 35.863281 19.925781 35.035156 19.925781 35.035156 C 19.140625 34.871094 18.496094 34.078125 18.496094 33.273438 L 18.496094 18.628906 C 18.496094 17.824219 19.136719 17.03125 19.921875 16.859375 C 19.921875 16.859375 24.449219 16.039062 30.992188 16.039062 C 37.535156 16.039062 42.359375 16.867188 42.359375 16.867188 C 43.144531 17.035156 43.785156 17.824219 43.785156 18.628906 Z M 41.464844 41.363281 C 40.382812 41.363281 39.503906 40.484375 39.503906 39.402344 C 39.503906 38.320312 40.382812 37.441406 41.464844 37.441406 C 42.546875 37.441406 43.425781 38.320312 43.425781 39.402344 C 43.425781 40.484375 42.546875 41.363281 41.464844 41.363281 Z M 20.972656 41.363281 C 19.890625 41.363281 19.011719 40.484375 19.011719 39.402344 C 19.011719 38.320312 19.890625 37.441406 20.972656 37.441406 C 22.054688 37.441406 22.933594 38.320312 22.933594 39.402344 C 22.933594 40.484375 22.054688 41.363281 20.972656 41.363281 Z M 47.214844 19.304688 L 45.574219 19.304688 L 45.574219 14.445312 C 45.574219 13.929688 45.175781 13.378906 44.691406 13.21875 C 44.691406 13.21875 40.125 11.714844 31.140625 11.714844 C 22.15625 11.714844 17.59375 13.21875 17.59375 13.21875 C 17.105469 13.378906 16.707031 13.929688 16.707031 14.445312 L 16.707031 19.304688 L 15.070312 19.304688 C 14.554688 19.304688 14.136719 19.722656 14.136719 20.234375 L 14.136719 27.359375 C 14.136719 27.871094 14.554688 28.289062 15.070312 28.289062 L 16.707031 28.289062 L 16.707031 45.019531 C 16.707031 45.53125 17.128906 45.949219 17.640625 45.949219 L 19.664062 45.949219 L 19.664062 48.894531 C 19.664062 49.429688 20.175781 49.867188 20.804688 49.867188 L 22.917969 49.867188 C 23.546875 49.867188 24.058594 49.429688 24.058594 48.894531 L 24.058594 45.949219 L 38.414062 45.949219 L 38.414062 48.894531 C 38.414062 49.429688 38.925781 49.867188 39.550781 49.867188 L 41.667969 49.867188 C 42.292969 49.867188 42.808594 49.429688 42.808594 48.894531 L 42.808594 45.949219 L 44.644531 45.949219 C 45.15625 45.949219 45.574219 45.53125 45.574219 45.019531 L 45.574219 28.289062 L 47.214844 28.289062 C 47.726562 28.289062 48.144531 27.871094 48.144531 27.359375 L 48.144531 20.234375 C 48.144531 19.722656 47.726562 19.304688 47.214844 19.304688 Z M 47.214844 19.304688 " fill-opacity="1" fill-rule="nonzero"/></svg>