<svg xmlns="http://www.w3.org/2000/svg" xmlns:xlink="http://www.w3.org/1999/xlink" width="84" zoomAndPan="magnify" viewBox="0 0 63 62.999997" height="84" preserveAspectRatio="xMidYMid meet" version="1.0"><defs><clipPath id="ab1d16e4f4"><path d="M 0 0 L 62.25 0 L 62.25 62.25 L 0 62.25 Z M 0 0 " clip-rule="nonzero"/></clipPath></defs><g clip-path="url(#ab1d16e4f4)"><path fill="#0a1b29" d="M 0 46.800781 L 0 15.601562 C 0 7.019531 7.019531 0 15.597656 0 L 46.800781 0 C 55.378906 0 62.398438 7.019531 62.398438 15.597656 L 62.398438 46.800781 C 62.398438 55.382812 55.378906 62.402344 46.800781 62.402344 L 15.601562 62.402344 C 7.019531 62.402344 0 55.378906 0 46.800781 Z M 0 46.800781 " fill-opacity="1" fill-rule="nonzero"/></g><path fill="#ffffff" d="M 40.871094 34.765625 C 40.875 34.179688 40.410156 33.699219 39.832031 33.699219 C 39.289062 33.695312 38.808594 34.175781 38.8125 34.714844 C 38.816406 35.28125 39.285156 35.753906 39.847656 35.757812 C 40.421875 35.761719 40.867188 35.328125 40.871094 34.765625 Z M 22.59375 35.757812 C 23.160156 35.757812 23.609375 35.316406 23.609375 34.753906 C 23.613281 34.171875 23.136719 33.695312 22.558594 33.699219 C 22.011719 33.699219 21.542969 34.179688 21.550781 34.726562 C 21.558594 35.292969 22.023438 35.753906 22.59375 35.757812 Z M 33.855469 14.046875 C 33.855469 13.460938 33.410156 13.019531 32.828125 13.019531 C 32.257812 13.023438 31.777344 13.496094 31.785156 14.054688 C 31.792969 14.609375 32.28125 15.097656 32.832031 15.097656 C 33.390625 15.097656 33.855469 14.621094 33.855469 14.046875 Z M 29.621094 13.019531 C 29.039062 13.015625 28.574219 13.460938 28.5625 14.03125 C 28.554688 14.585938 29.023438 15.078125 29.582031 15.09375 C 30.132812 15.109375 30.628906 14.632812 30.640625 14.070312 C 30.652344 13.503906 30.191406 13.027344 29.621094 13.019531 Z M 31.234375 33.699219 L 30.515625 33.699219 C 28.914062 33.699219 27.316406 33.695312 25.714844 33.699219 C 25.230469 33.699219 24.945312 33.984375 24.96875 34.425781 C 24.992188 34.820312 25.308594 35.058594 25.820312 35.0625 C 28.558594 35.0625 31.296875 35.0625 34.035156 35.0625 C 34.90625 35.0625 35.773438 35.058594 36.640625 35.0625 C 36.925781 35.0625 37.183594 35 37.351562 34.75 C 37.496094 34.535156 37.527344 34.300781 37.398438 34.070312 C 37.246094 33.796875 36.996094 33.695312 36.691406 33.695312 C 34.871094 33.699219 33.054688 33.699219 31.234375 33.699219 Z M 31.199219 32.617188 L 42.496094 32.617188 C 43.332031 32.617188 43.363281 32.589844 43.359375 31.761719 C 43.359375 31.203125 43.261719 31.101562 42.707031 31.101562 L 19.988281 31.101562 C 19.078125 31.101562 19.078125 31.101562 19.078125 32.015625 C 19.082031 32.507812 19.191406 32.617188 19.683594 32.617188 Z M 31.230469 37.824219 C 29.914062 37.824219 28.597656 37.820312 27.277344 37.824219 C 26.734375 37.828125 26.417969 38.132812 26.414062 38.675781 C 26.40625 39.335938 26.398438 39.996094 26.429688 40.652344 C 26.46875 41.585938 27.253906 42.339844 28.1875 42.34375 C 30.207031 42.355469 32.226562 42.355469 34.242188 42.347656 C 35.09375 42.34375 35.832031 41.703125 35.976562 40.863281 C 36.097656 40.179688 36.019531 39.488281 36.03125 38.800781 C 36.042969 38.125 35.730469 37.824219 35.058594 37.824219 Z M 36.6875 22.128906 L 40.953125 22.128906 C 41.433594 22.128906 41.578125 21.96875 41.492188 21.488281 C 41.253906 20.21875 41 18.953125 40.769531 17.683594 C 40.707031 17.351562 40.542969 17.226562 40.214844 17.230469 C 37.609375 17.234375 35.007812 17.230469 32.402344 17.234375 C 32.011719 17.234375 31.882812 17.363281 31.882812 17.757812 C 31.882812 19.035156 31.882812 20.3125 31.882812 21.585938 C 31.882812 22.003906 32.007812 22.128906 32.421875 22.128906 Z M 25.71875 22.128906 C 27.152344 22.128906 28.585938 22.128906 30.019531 22.128906 C 30.417969 22.128906 30.5625 21.984375 30.5625 21.582031 C 30.5625 20.316406 30.5625 19.050781 30.5625 17.785156 C 30.5625 17.375 30.421875 17.234375 30.023438 17.234375 L 22.210938 17.234375 C 21.847656 17.234375 21.726562 17.34375 21.660156 17.691406 C 21.421875 18.960938 21.183594 20.230469 20.941406 21.5 C 20.855469 21.941406 21.003906 22.128906 21.453125 22.128906 C 22.875 22.128906 24.296875 22.128906 25.71875 22.128906 Z M 38.480469 11.957031 L 38.542969 11.957031 C 38.777344 12.082031 39.03125 12.152344 39.246094 12.320312 C 40.308594 13.148438 41.378906 13.96875 42.445312 14.789062 C 42.726562 15.007812 42.917969 15.292969 42.992188 15.640625 C 43.394531 17.554688 43.785156 19.472656 44.191406 21.390625 C 44.332031 22.054688 44.429688 22.730469 44.632812 23.382812 L 44.632812 33.242188 C 44.613281 33.261719 44.578125 33.277344 44.578125 33.300781 C 44.46875 34.578125 44.359375 35.855469 44.253906 37.136719 C 44.148438 38.402344 44.042969 39.671875 43.933594 40.941406 C 43.917969 41.132812 43.8125 41.265625 43.628906 41.339844 C 43.398438 41.433594 43.171875 41.539062 42.9375 41.625 C 42.6875 41.714844 42.582031 41.886719 42.578125 42.148438 C 42.574219 42.566406 42.554688 42.984375 42.542969 43.398438 C 42.535156 43.613281 42.503906 43.808594 42.335938 43.96875 C 41.929688 44.363281 41.550781 44.78125 41.125 45.152344 C 40.710938 45.511719 40.421875 46.027344 39.847656 46.214844 L 42.125 50.101562 C 42.1875 50.207031 42.285156 50.300781 42.25 50.441406 L 39.988281 50.441406 L 37.601562 46.410156 C 37.519531 46.273438 37.460938 46.160156 37.253906 46.160156 C 33.25 46.167969 29.246094 46.167969 25.242188 46.164062 C 25.070312 46.164062 24.988281 46.230469 24.90625 46.371094 C 24.621094 46.878906 24.324219 47.382812 24.019531 47.878906 C 23.5 48.730469 23.035156 49.617188 22.476562 50.441406 L 20.152344 50.441406 L 22.65625 46.175781 C 22.382812 46.175781 22.21875 46.066406 22.0625 45.910156 C 21.421875 45.265625 20.769531 44.628906 20.121094 43.992188 C 19.992188 43.863281 19.902344 43.730469 19.898438 43.53125 C 19.890625 43.082031 19.84375 42.636719 19.851562 42.1875 C 19.859375 41.871094 19.726562 41.699219 19.445312 41.601562 C 19.347656 41.570312 19.257812 41.507812 19.15625 41.488281 C 18.585938 41.382812 18.480469 40.996094 18.449219 40.480469 C 18.386719 39.355469 18.265625 38.234375 18.175781 37.109375 C 18.054688 35.695312 17.941406 34.28125 17.828125 32.867188 C 17.832031 32.847656 17.839844 32.828125 17.839844 32.804688 C 17.835938 29.84375 17.832031 26.882812 17.828125 23.921875 C 17.828125 23.828125 17.878906 23.710938 17.765625 23.636719 L 17.765625 23.574219 C 17.882812 23.527344 17.847656 23.410156 17.863281 23.332031 C 18.359375 20.925781 18.851562 18.515625 19.339844 16.109375 C 19.441406 15.601562 19.554688 15.113281 20.003906 14.773438 C 21.09375 13.949219 22.171875 13.105469 23.257812 12.273438 C 23.429688 12.140625 23.625 12.039062 23.851562 12.019531 C 28.652344 12.019531 33.453125 12.019531 38.253906 12.019531 C 38.332031 12.019531 38.425781 12.050781 38.480469 11.957031 Z M 38.480469 11.957031 " fill-opacity="1" fill-rule="nonzero"/></svg>