<svg xmlns="http://www.w3.org/2000/svg" xmlns:xlink="http://www.w3.org/1999/xlink" width="84" zoomAndPan="magnify" viewBox="0 0 63 62.999997" height="84" preserveAspectRatio="xMidYMid meet" version="1.0"><defs><clipPath id="3132137677"><path d="M 0 0 L 62.25 0 L 62.25 62.25 L 0 62.25 Z M 0 0 " clip-rule="nonzero"/></clipPath></defs><g clip-path="url(#3132137677)"><path fill="#0a1b29" d="M 0 46.5625 L 0 15.519531 C 0 6.984375 6.984375 0 15.519531 0 L 46.5625 0 C 55.101562 0 62.085938 6.984375 62.085938 15.519531 L 62.085938 46.566406 C 62.085938 55.101562 55.101562 62.085938 46.5625 62.085938 L 15.519531 62.085938 C 6.984375 62.085938 0 55.101562 0 46.5625 Z M 0 46.5625 " fill-opacity="1" fill-rule="nonzero"/></g><path fill="#ffffff" d="M 21.929688 34.425781 L 40.21875 34.425781 L 40.21875 43.921875 L 21.929688 43.921875 Z M 21.929688 34.425781 " fill-opacity="1" fill-rule="nonzero"/><path stroke-linecap="butt" transform="matrix(0.351695, 0, 0, 0.351695, 0.0000015, -0.000001)" fill-opacity="1" fill="#0a1b29" fill-rule="nonzero" stroke-linejoin="miter" d="M 61.843376 145.567413 C 62.87632 145.72291 63.631592 145.57852 64.231366 145.200885 C 64.853354 144.823249 65.375379 144.179047 65.875191 143.234958 C 66.808173 141.480064 67.818904 139.769597 68.840741 138.070236 C 69.607119 136.79294 70.373497 135.52675 71.117662 134.249453 L 71.839612 132.961049 C 72.239462 132.261313 72.694846 131.739287 73.29462 131.406079 C 73.894394 131.061764 74.571917 130.939588 75.371615 130.950695 C 84.101662 131.017337 92.831708 131.017337 101.561754 130.950695 C 102.40588 130.939588 103.138938 131.072871 103.760926 131.428293 C 104.394021 131.783715 104.882726 132.339061 105.293682 133.072118 C 107.437319 136.870688 109.692026 140.591509 111.924519 144.345651 C 112.024481 144.523362 112.13555 144.734394 112.213299 144.867677 C 112.302154 145.034281 112.379903 145.156457 112.468758 145.267526 C 112.602041 145.423023 112.757538 145.534093 113.046318 145.5452 L 113.179602 145.5452 C 114.66793 145.500772 116.167365 145.522986 117.911153 145.534093 L 111.280317 134.182811 C 110.936002 133.583037 110.647222 133.105439 110.480618 132.738911 C 110.391762 132.550093 110.325121 132.361275 110.2918 132.183564 C 110.258479 131.994746 110.258479 131.772608 110.380655 131.561576 C 110.502832 131.350544 110.691649 131.228368 110.86936 131.161727 C 111.035964 131.095085 111.235889 131.061764 111.435814 131.03955 C 111.835663 130.984016 112.39101 130.984016 113.079639 130.972909 C 113.390633 130.972909 113.723841 130.995123 114.012621 131.00623 C 114.301401 131.017337 114.567968 131.017337 114.81232 130.984016 C 115.045566 130.950695 115.24549 130.884053 115.412094 130.784091 C 115.545377 130.706343 115.667554 130.584166 115.778623 130.417562 L 115.889692 130.228745 C 116.034082 129.973285 116.034082 129.806681 116.011868 129.706719 C 115.989655 129.59565 115.923013 129.473473 115.78973 129.329083 C 115.634233 129.162479 115.467629 129.029196 115.24549 128.829272 C 115.056673 128.640454 114.823427 128.407208 114.679037 128.107321 C 114.579075 127.896289 114.390257 127.574189 114.256974 127.285408 C 114.123691 126.985521 113.9793 126.6301 113.934873 126.285785 C 113.890445 125.94147 113.94598 125.519407 114.290294 125.197306 C 114.612395 124.897419 115.078886 124.786349 115.64534 124.775242 C 118.21104 124.730815 119.843759 123.331342 121.532012 121.665302 C 130.495304 112.824187 132.350161 101.606189 132.572299 89.033145 L 127.418684 93.542558 L 126.896659 93.997942 C 124.419814 96.074938 121.72083 97.852047 118.677531 99.051595 L 118.011116 99.295947 L 117.500197 99.506979 C 117.311379 99.595835 117.089241 99.68469 116.855995 99.740225 C 116.356183 99.851294 115.78973 99.817973 115.24549 99.362589 C 114.95671 99.118237 114.767892 98.840563 114.66793 98.540676 C 114.567968 98.240789 114.567968 97.940902 114.612395 97.685443 C 114.656823 97.418877 114.745679 97.174524 114.823427 96.963492 C 114.912282 96.730247 114.990031 96.563643 115.056673 96.374825 C 117.255844 89.866165 119.488337 83.401932 121.698616 76.893272 C 123.56458 71.384235 126.030318 66.152872 130.117668 61.810062 C 130.528625 61.365785 130.750763 60.98815 130.739656 60.455017 C 130.573052 52.491349 128.22949 45.638374 121.687509 40.684684 C 118.61089 38.352228 115.24549 36.597334 111.613525 35.297823 C 102.628019 32.065707 93.287092 31.665857 83.812881 31.987958 C 76.537843 32.243418 69.451622 33.420752 62.743037 36.308554 C 57.689385 38.485512 53.657569 41.362206 50.847516 45.105241 C 48.126319 48.714993 46.515814 53.157765 46.238141 58.60016 L 46.215927 59.133292 C 46.171499 60.366162 46.282569 61.254716 47.004519 62.098843 L 47.160016 62.265446 C 50.536522 65.775236 52.746801 70.006976 54.357306 74.483068 C 56.278805 79.836608 58.089234 85.245682 59.91077 90.632543 L 61.732307 96.019403 C 61.798948 96.219328 61.887804 96.419253 61.998873 96.663605 C 62.087728 96.896851 62.198798 97.163417 62.265439 97.429983 C 62.332081 97.707657 62.365402 98.018651 62.29876 98.340752 C 62.232119 98.662853 62.065515 98.973847 61.787841 99.240413 C 61.476847 99.5403 61.14364 99.718011 60.788218 99.784652 C 60.443903 99.840187 60.110695 99.784652 59.821915 99.695797 C 59.533135 99.606942 59.255462 99.473658 59.022216 99.362589 C 58.766757 99.240413 58.555725 99.129344 58.3558 99.062702 C 54.024098 97.496625 50.636485 94.575503 47.348834 91.676594 L 45.949361 90.443725 C 45.760543 90.277121 45.582832 90.088303 45.427335 89.932806 C 45.260731 89.766202 45.105234 89.610705 44.949737 89.477422 C 44.760919 89.333032 44.572102 89.210856 44.338856 89.133108 C 44.327749 95.930548 45.049699 102.461422 47.271085 108.747944 C 49.303653 114.490226 52.313631 119.510558 57.167359 123.198059 L 57.644957 123.55348 C 58.444656 124.119934 59.099965 124.608639 59.977412 124.697494 L 59.988519 124.697494 C 60.110695 124.708601 60.266192 124.697494 60.488331 124.664173 C 60.699362 124.630852 60.965929 124.586425 61.221388 124.586425 C 61.476847 124.586425 61.787841 124.619745 62.076622 124.808563 C 62.365402 124.997381 62.565326 125.286161 62.687503 125.674904 C 63.120673 127.074377 62.420936 128.162856 61.476847 128.962555 L 61.132533 129.262442 C 61.043677 129.351297 60.965929 129.440153 60.910394 129.529008 C 60.854859 129.606757 60.832645 129.673398 60.832645 129.728933 C 60.821539 129.795574 60.832645 129.873323 60.88818 130.006606 C 61.043677 130.339814 61.221388 130.584166 61.443527 130.739663 C 61.654558 130.89516 61.932231 130.984016 62.29876 130.984016 C 63.653805 130.961802 65.008851 130.972909 66.763746 130.972909 L 67.641193 130.972909 L 67.196916 131.72818 L 59.144392 145.522986 C 59.499814 145.511879 59.844129 145.500772 60.177337 145.489665 C 60.754897 145.478558 61.299137 145.489665 61.843376 145.567413 Z M 105.91567 79.992105 C 100.306671 81.869176 94.531068 82.113528 88.755465 81.980245 C 83.246428 82.113528 77.737391 81.858069 72.361638 80.169816 L 71.839612 80.003212 C 69.118414 79.092444 66.81928 77.781826 65.086599 75.938076 C 63.342811 74.094326 62.187691 71.72855 61.687879 68.774107 C 60.999249 64.664543 60.110695 60.510552 59.755273 56.289919 C 59.533135 53.657577 60.066267 51.447298 61.232495 49.592441 C 62.320974 47.848653 63.942586 46.44918 65.941833 45.305166 L 66.352789 45.07192 C 71.395335 42.328509 76.871051 41.38442 82.402301 41.006784 C 90.021655 40.473652 97.674329 40.595828 105.182613 42.617289 C 106.282199 42.917176 107.381785 43.283705 108.44805 43.716875 C 112.490972 45.349594 115.145528 47.104488 116.589429 49.636868 C 118.044436 52.158141 118.222147 55.334723 117.566838 59.644211 C 117.111454 62.665296 116.522787 65.730808 116.045189 68.729679 C 115.578698 71.695229 114.423578 74.061005 112.67979 75.915862 C 110.947109 77.759612 108.647975 79.081337 105.91567 79.992105 Z M 75.182798 95.841693 C 73.750004 96.441467 72.061751 96.352611 71.062127 94.919817 C 69.462729 92.620683 68.285395 90.06609 67.452375 87.411534 C 66.952563 85.812136 67.663407 84.334914 69.107308 83.535215 C 70.573422 82.72441 72.439386 82.580019 73.638935 83.946172 L 73.761111 84.079455 C 75.682609 86.522979 76.448988 89.588492 77.248686 91.632167 L 77.282007 91.709915 L 77.282007 91.79877 C 77.337542 92.887249 77.193152 93.75359 76.815516 94.431113 C 76.437881 95.119742 75.871427 95.552912 75.182798 95.841693 Z M 103.894209 96.14158 C 101.472898 96.163794 99.595827 94.009049 100.395526 91.576632 C 101.161904 89.266391 102.105993 86.978363 103.250007 84.823619 C 103.738712 83.868423 104.493983 83.290863 105.382537 83.068724 C 106.137809 82.8688 106.959721 82.946548 107.75942 83.224221 L 108.103735 83.357504 C 109.02561 83.746247 109.71424 84.379342 110.058555 85.179041 C 110.413976 85.97874 110.413976 86.889508 110.069661 87.800276 C 109.17 90.154945 107.970452 92.398545 106.804224 94.608823 C 106.20445 95.730623 105.038223 96.14158 103.894209 96.14158 Z M 95.630654 124.630852 C 91.52109 124.730815 87.422633 124.741922 83.31307 124.664173 L 81.558175 124.630852 C 71.761864 124.397607 64.342435 117.655701 63.409453 108.225918 C 63.153994 105.571362 63.731554 103.37219 65.11992 101.839434 C 66.519393 100.295571 68.651923 99.495872 71.328693 99.495872 C 77.304221 99.484765 83.290856 99.495872 89.266384 99.495872 C 95.153056 99.495872 101.050835 99.473658 106.948614 99.495872 C 109.525422 99.506979 111.535776 100.206716 112.813073 101.661723 C 114.09037 103.105624 114.556861 105.193727 114.279188 107.770534 C 113.201815 117.522418 105.671318 124.375393 95.630654 124.630852 Z M 95.630654 124.630852 " stroke="#ffffff" stroke-width="1" stroke-opacity="1" stroke-miterlimit="4"/><path stroke-linecap="butt" transform="matrix(0.351695, 0, 0, 0.351695, 0.0000015, -0.000001)" fill-opacity="1" fill="#ffffff" fill-rule="nonzero" stroke-linejoin="miter" d="M 61.543489 147.544447 C 62.931855 147.755478 64.186938 147.577768 65.286524 146.911352 C 66.197292 146.344898 66.874815 145.511879 67.419054 144.578897 L 67.641193 144.179047 L 67.985508 143.534845 C 68.796314 142.046517 69.662654 140.580402 70.551208 139.092074 C 71.573046 137.414928 72.60599 135.693354 73.594507 133.938459 C 73.861073 133.449754 74.094319 133.249829 74.27203 133.149867 C 74.460847 133.038798 74.771841 132.949942 75.360509 132.949942 C 84.101662 133.016584 92.842815 133.016584 101.583968 132.949942 C 102.205956 132.938835 102.550271 133.049905 102.783516 133.172081 C 103.005655 133.305364 103.261114 133.538609 103.549894 134.060635 L 104.371807 135.482322 C 106.282199 138.814401 108.259232 142.102052 110.202945 145.367489 C 110.2918 145.522986 110.325121 145.589627 110.458404 145.845087 C 110.569473 146.045011 110.72497 146.311578 110.947109 146.567037 C 111.469134 147.166811 112.224406 147.577768 113.246243 147.544447 C 114.934496 147.488912 116.600536 147.53334 118.788601 147.53334 L 121.409836 147.53334 L 120.088111 145.278633 C 117.555732 140.946931 115.278811 137.059506 113.012998 133.183188 C 112.96857 133.105439 112.924142 133.038798 112.890821 132.972156 C 112.957463 132.972156 113.035211 132.972156 113.11296 132.972156 C 113.346205 132.972156 113.568344 132.983263 113.923766 133.005477 C 114.245867 133.016584 114.656823 133.027691 115.078886 132.972156 C 115.512057 132.905514 116.011868 132.772231 116.489466 132.461237 C 116.978171 132.150243 117.366914 131.717073 117.655694 131.161727 L 117.766763 130.950695 C 117.988902 130.439776 118.088864 129.895537 117.977795 129.317976 C 117.855619 128.695988 117.522411 128.251711 117.255844 127.974038 C 117.044813 127.729686 116.700498 127.452012 116.611643 127.363157 C 116.478359 127.229874 116.456146 127.185446 116.456146 127.20766 C 116.389504 127.074377 116.311756 126.929987 116.256221 126.80781 C 116.245114 126.785597 116.234007 126.763383 116.2229 126.752276 C 119.321733 126.507923 121.309874 124.686387 122.942592 123.086989 C 132.761117 113.401747 134.44937 101.061949 134.593761 87.933559 L 134.627081 84.590374 L 132.105808 86.789546 C 129.75114 88.855434 127.929603 90.443725 126.108067 92.032016 C 123.609008 94.208974 120.932238 96.008297 117.944474 97.185631 L 117.333593 97.418877 C 117.111454 97.496625 116.844888 97.618801 116.722712 97.674336 C 116.711605 97.674336 116.700498 97.674336 116.689391 97.685443 C 116.722712 97.58548 116.756033 97.518839 116.80046 97.396663 C 116.844888 97.285593 116.900423 97.15231 116.94485 97.019027 C 119.144022 90.543687 121.398729 84.012813 123.586794 77.537474 C 125.40833 72.150613 127.762999 67.230244 131.572676 63.176215 L 131.783708 62.931862 C 132.294626 62.343195 132.761117 61.543496 132.738903 60.410589 C 132.561193 52.058179 130.062134 44.527681 122.898164 39.085286 C 119.643834 36.619548 116.089617 34.775797 112.291047 33.409645 C 102.939013 30.055353 93.298199 29.66661 83.735133 29.999818 C 76.526736 30.24417 69.407195 31.388184 62.609754 34.18713 L 61.954445 34.464803 C 56.667547 36.741724 52.324738 39.818343 49.248119 43.894586 C 46.160392 47.993043 44.427711 53.013375 44.21668 59.055544 L 44.21668 59.066651 C 44.161145 60.566086 44.283321 62.165484 45.727222 63.653813 L 46.293676 64.275801 C 49.092622 67.385741 51.025227 71.117669 52.469128 75.160591 C 55.023722 82.280132 57.389498 89.466315 59.833022 96.663605 L 59.844129 96.663605 C 59.932984 96.952385 60.077374 97.263379 60.155123 97.44109 C 60.199551 97.563267 60.232871 97.652122 60.266192 97.729871 C 60.16623 97.685443 60.05516 97.641015 59.899663 97.563267 C 59.688632 97.463304 59.366531 97.2967 59.033323 97.185631 L 59.033323 97.174524 C 54.52391 95.552912 51.12519 92.309689 47.259978 88.933183 C 47.148909 88.83322 47.03784 88.711044 46.849022 88.533333 C 46.682418 88.366729 46.471386 88.144591 46.215927 87.933559 C 45.671688 87.489282 44.927523 87.078326 43.916793 87.022791 L 42.361823 86.956149 L 42.339609 88.511119 C 42.284074 95.663982 42.994918 102.65024 45.382907 109.41436 C 47.570972 115.589812 50.903051 121.143277 56.478729 125.163985 L 56.478729 125.175092 C 57.167359 125.663797 58.266945 126.541244 59.777487 126.685634 L 59.932984 126.696741 C 60.277299 126.718955 60.5994 126.674527 60.777111 126.641207 C 60.788218 126.641207 60.799325 126.641207 60.799325 126.641207 C 60.788218 126.674527 60.777111 126.707848 60.766004 126.741169 C 60.688255 126.91888 60.521651 127.163232 60.188444 127.440905 C 60.032947 127.574189 59.533135 127.951824 59.222141 128.451636 C 59.033323 128.740416 58.877826 129.106945 58.833398 129.551222 C 58.800077 129.995499 58.888933 130.428669 59.066644 130.828519 C 59.322103 131.394972 59.699739 131.950319 60.277299 132.361275 C 60.877073 132.794445 61.57681 132.99437 62.332081 132.983263 C 62.931855 132.972156 63.520522 132.972156 64.164724 132.972156 L 56.967434 145.278633 L 55.64571 147.544447 L 58.266945 147.544447 C 59.011109 147.544447 59.710846 147.511126 60.221764 147.488912 C 60.766004 147.477805 61.17696 147.488912 61.543489 147.544447 Z M 105.282575 78.09282 C 99.995677 79.858822 94.497747 80.114281 88.788786 79.980998 L 88.722144 79.980998 C 83.279749 80.114281 78.026171 79.858822 72.961412 78.259424 L 72.472707 78.103927 C 69.973648 77.270907 67.996615 76.115787 66.541607 74.571924 C 65.097706 73.039167 64.098083 71.051027 63.664912 68.440899 C 62.954069 64.209159 62.098835 60.232878 61.754521 56.123315 C 61.565703 53.879715 62.021087 52.102606 62.931855 50.647599 C 63.85373 49.170377 65.308738 47.915294 67.307985 46.826815 C 71.972895 44.283328 77.12651 43.37256 82.535585 42.994925 C 90.066082 42.472899 97.45219 42.606182 104.660587 44.549895 L 105.426965 44.772033 C 106.193343 45.005279 106.948614 45.271845 107.692779 45.571732 L 108.403622 45.860512 C 111.880091 47.348841 113.823803 48.814955 114.856748 50.625385 C 115.967441 52.557991 116.2229 55.168119 115.589805 59.344324 C 115.24549 61.643458 114.845641 63.831523 114.456898 66.108444 L 114.079263 68.407578 C 113.657199 71.017706 112.668683 73.005847 111.224782 74.538603 C 109.769774 76.093573 107.781634 77.2598 105.282575 78.09282 Z M 74.41642 93.997942 C 73.961035 94.18676 73.5834 94.220081 73.305727 94.175653 C 73.072481 94.131226 72.872556 94.020156 72.705953 93.775804 C 71.239838 91.665487 70.140252 89.299711 69.362767 86.811759 C 69.173949 86.234199 69.35166 85.68996 70.084717 85.29011 C 70.584529 85.00133 71.062127 84.901368 71.417549 84.923581 C 71.73965 84.945795 71.984002 85.056865 72.195034 85.323431 C 73.805538 87.367106 74.41642 89.81063 75.293867 92.109764 C 75.304974 92.865036 75.182798 93.264885 75.060621 93.475917 C 74.960659 93.675841 74.782948 93.842445 74.41642 93.997942 Z M 103.883102 94.142332 C 102.716874 94.153439 102.061566 93.275992 102.250383 92.376331 L 102.294811 92.19862 C 103.027869 89.988341 103.938637 87.811383 105.016009 85.745494 C 105.271468 85.267896 105.571355 85.079078 105.871242 85.00133 C 106.215557 84.912475 106.704262 84.945795 107.32625 85.201255 L 107.515068 85.29011 C 107.914917 85.501142 108.137056 85.756601 108.237018 85.989847 C 108.348087 86.245306 108.381408 86.600728 108.203697 87.078326 C 107.348464 89.310818 106.215557 91.443349 105.038223 93.675841 C 104.916046 93.89798 104.627266 94.142332 103.894209 94.142332 Z M 95.586226 122.631605 C 90.921316 122.742674 86.267513 122.742674 81.602603 122.631605 C 72.772594 122.420574 66.230613 116.411725 65.397593 108.025994 C 65.175455 105.76018 65.69748 104.182996 66.608249 103.183373 C 67.519017 102.172642 69.040666 101.495119 71.3398 101.495119 C 77.315328 101.484012 83.279749 101.495119 89.266384 101.495119 C 95.164163 101.495119 101.050835 101.484012 106.948614 101.495119 C 109.181107 101.506226 110.547259 102.117107 111.313637 102.983448 C 112.091123 103.860895 112.5354 105.293689 112.27994 107.548396 C 111.335851 116.145159 104.849405 122.209542 96.008289 122.609391 Z M 95.586226 122.631605 " stroke="#0a1b29" stroke-width="3" stroke-opacity="1" stroke-miterlimit="4"/><path fill="#ffffff" d="M 31.246094 24.054688 C 33.828125 24.054688 36.414062 24.074219 38.996094 24.042969 C 39.664062 24.03125 39.765625 24.242188 39.566406 24.816406 C 39.132812 26.070312 38.152344 26.699219 36.992188 27.101562 C 34.722656 27.882812 32.363281 27.839844 30.007812 27.78125 C 28.070312 27.734375 26.152344 27.578125 24.417969 26.589844 C 23.667969 26.164062 23.179688 25.527344 22.902344 24.714844 C 22.734375 24.21875 22.824219 24.035156 23.414062 24.042969 C 26.023438 24.074219 28.636719 24.054688 31.246094 24.054688 Z M 31.246094 24.054688 " fill-opacity="1" fill-rule="nonzero"/></svg>
