<svg xmlns="http://www.w3.org/2000/svg" xmlns:xlink="http://www.w3.org/1999/xlink" width="84" zoomAndPan="magnify" viewBox="0 0 63 62.999997" height="84" preserveAspectRatio="xMidYMid meet" version="1.0"><defs><clipPath id="21282c366f"><path d="M 0 0 L 62.25 0 L 62.25 62.25 L 0 62.25 Z M 0 0 " clip-rule="nonzero"/></clipPath></defs><g clip-path="url(#21282c366f)"><path fill="#0a1b29" d="M 0 46.710938 L 0 15.570312 C 0 7.007812 7.007812 0 15.570312 0 L 46.714844 0 C 55.277344 0 62.28125 7.007812 62.28125 15.570312 L 62.28125 46.714844 C 62.28125 55.277344 55.277344 62.285156 46.710938 62.285156 L 15.570312 62.285156 C 7.007812 62.285156 0 55.277344 0 46.710938 Z M 0 46.710938 " fill-opacity="1" fill-rule="nonzero"/></g><path fill="#ffffff" d="M 31.492188 24.78125 C 31.433594 25.257812 31.488281 25.792969 32.074219 26.140625 C 32.308594 26.28125 32.484375 26.527344 32.328125 26.816406 C 32.191406 27.074219 31.917969 27.007812 31.703125 26.933594 C 31.246094 26.773438 30.800781 26.765625 30.339844 26.921875 C 30.128906 26.992188 29.863281 27.050781 29.746094 26.753906 C 29.664062 26.542969 29.726562 26.332031 29.902344 26.222656 C 30.6875 25.734375 30.488281 24.960938 30.511719 24.25 C 30.53125 23.660156 30.265625 23.578125 29.765625 23.757812 C 28.984375 24.042969 28.195312 24.304688 27.398438 24.542969 C 27.148438 24.617188 26.800781 24.902344 26.613281 24.5 C 26.441406 24.128906 26.59375 23.800781 26.964844 23.578125 C 27.851562 23.050781 28.707031 22.46875 29.617188 21.984375 C 30.292969 21.625 30.578125 21.148438 30.5 20.382812 C 30.449219 19.859375 30.488281 19.320312 30.5 18.789062 C 30.507812 18.511719 30.570312 18.234375 30.914062 18.203125 C 31.296875 18.167969 31.453125 18.421875 31.46875 18.757812 C 31.492188 19.289062 31.539062 19.828125 31.476562 20.351562 C 31.386719 21.167969 31.730469 21.648438 32.425781 22.019531 C 33.277344 22.472656 34.078125 23.011719 34.914062 23.496094 C 35.292969 23.714844 35.617188 24.007812 35.414062 24.445312 C 35.179688 24.945312 34.773438 24.546875 34.472656 24.464844 C 33.832031 24.292969 33.210938 24.050781 32.578125 23.84375 C 31.5 23.492188 31.492188 23.5 31.492188 24.78125 Z M 31.492188 24.78125 " fill-opacity="1" fill-rule="nonzero"/><path fill="#ffffff" d="M 30.542969 13.894531 C 30.542969 13.359375 30.136719 12.941406 29.609375 12.9375 C 29.097656 12.929688 28.644531 13.375 28.648438 13.878906 C 28.652344 14.398438 29.09375 14.835938 29.605469 14.828125 C 30.113281 14.824219 30.539062 14.398438 30.542969 13.894531 Z M 32.273438 12.9375 C 31.742188 12.9375 31.324219 13.359375 31.328125 13.886719 C 31.335938 14.40625 31.769531 14.835938 32.285156 14.828125 C 32.785156 14.824219 33.21875 14.390625 33.222656 13.890625 C 33.226562 13.378906 32.785156 12.933594 32.273438 12.9375 Z M 21.972656 30.199219 C 21.714844 30.199219 21.5 30.199219 21.289062 30.199219 C 21.117188 30.199219 21.027344 30.265625 21.042969 30.460938 C 21.0625 30.703125 21.074219 30.949219 21.054688 31.191406 C 21.023438 31.578125 21.183594 31.855469 21.46875 32.089844 C 21.65625 32.242188 21.863281 32.347656 22.085938 32.421875 C 22.28125 32.484375 22.453125 32.578125 22.601562 32.726562 C 22.871094 33 23.191406 33.074219 23.554688 32.941406 C 23.78125 32.855469 24.007812 32.859375 24.238281 32.925781 C 24.433594 32.984375 24.636719 33.023438 24.832031 33.074219 C 25.039062 33.125 25.136719 33.03125 25.09375 32.835938 C 24.910156 32.039062 24.683594 31.257812 24.144531 30.613281 C 23.933594 30.359375 23.660156 30.171875 23.328125 30.207031 C 22.859375 30.261719 22.394531 30.15625 21.972656 30.199219 Z M 40.855469 30.882812 L 40.855469 30.699219 C 40.855469 30.199219 40.855469 30.195312 40.34375 30.199219 C 39.84375 30.203125 39.339844 30.265625 38.851562 30.214844 C 38.292969 30.15625 37.90625 30.351562 37.597656 30.785156 C 37.210938 31.328125 37.011719 31.945312 36.839844 32.574219 C 36.699219 33.09375 36.761719 33.152344 37.289062 33.015625 C 37.683594 32.910156 38.058594 32.8125 38.476562 32.972656 C 38.765625 33.082031 39.0625 32.953125 39.28125 32.722656 C 39.417969 32.578125 39.585938 32.496094 39.769531 32.425781 C 40.664062 32.085938 40.910156 31.671875 40.855469 30.882812 Z M 30.921875 30.199219 C 29.84375 30.199219 28.761719 30.191406 27.683594 30.199219 C 26.675781 30.207031 26.015625 30.894531 26.089844 31.839844 C 26.183594 33.097656 27.222656 34.085938 28.480469 34.09375 C 30.121094 34.101562 31.757812 34.101562 33.398438 34.089844 C 34.105469 34.085938 34.710938 33.816406 35.179688 33.277344 C 35.546875 32.859375 35.75 32.359375 35.785156 31.808594 C 35.851562 30.851562 35.1875 30.210938 34.132812 30.199219 C 33.0625 30.191406 31.992188 30.199219 30.921875 30.199219 Z M 30.941406 28.660156 C 33.773438 28.660156 36.605469 28.660156 39.4375 28.660156 C 40.058594 28.660156 40.375 28.367188 40.394531 27.800781 C 40.433594 26.761719 40.46875 25.722656 40.496094 24.6875 C 40.542969 22.867188 40.585938 21.042969 40.632812 19.222656 C 40.640625 18.886719 40.640625 18.550781 40.675781 18.214844 C 40.714844 17.828125 40.585938 17.546875 40.242188 17.347656 C 39.75 17.0625 39.210938 16.917969 38.664062 16.796875 C 36.675781 16.355469 34.648438 16.28125 32.628906 16.195312 C 30.804688 16.121094 28.984375 16.183594 27.164062 16.304688 C 25.90625 16.386719 24.648438 16.496094 23.410156 16.75 C 22.789062 16.875 22.175781 17.027344 21.621094 17.351562 C 21.316406 17.535156 21.140625 17.777344 21.191406 18.15625 C 21.21875 18.375 21.226562 18.601562 21.234375 18.824219 C 21.277344 20.28125 21.320312 21.734375 21.355469 23.191406 C 21.390625 24.644531 21.414062 26.101562 21.4375 27.558594 C 21.453125 28.324219 21.78125 28.660156 22.539062 28.660156 Z M 43.546875 31.636719 C 43.546875 33.867188 43.550781 35.640625 43.542969 37.414062 C 43.539062 37.859375 43.476562 38.308594 43.453125 38.753906 C 43.441406 38.96875 43.355469 39.132812 43.164062 39.21875 C 42.53125 39.503906 42.359375 39.984375 42.378906 40.667969 C 42.425781 42.175781 42.476562 41.738281 41.5 42.742188 C 41.222656 43.023438 40.933594 43.296875 40.660156 43.582031 C 40.46875 43.777344 40.246094 43.871094 39.976562 43.871094 C 39.683594 43.867188 39.386719 43.867188 39.089844 43.871094 C 38.769531 43.875 38.757812 43.894531 38.917969 44.167969 C 39.671875 45.449219 40.421875 46.734375 41.175781 48.015625 C 41.386719 48.375 41.597656 48.734375 41.8125 49.09375 C 41.914062 49.257812 41.886719 49.328125 41.683594 49.328125 C 41.070312 49.320312 40.460938 49.320312 39.851562 49.328125 C 39.660156 49.332031 39.585938 49.226562 39.503906 49.089844 C 38.53125 47.4375 37.550781 45.792969 36.582031 44.140625 C 36.472656 43.949219 36.347656 43.875 36.125 43.875 C 32.671875 43.878906 29.21875 43.875 25.765625 43.867188 C 25.523438 43.863281 25.402344 43.960938 25.289062 44.160156 C 24.332031 45.792969 23.363281 47.421875 22.40625 49.054688 C 22.289062 49.257812 22.15625 49.339844 21.921875 49.332031 C 21.375 49.3125 20.820312 49.328125 20.273438 49.324219 C 19.949219 49.324219 19.945312 49.316406 20.113281 49.03125 C 21.042969 47.449219 21.96875 45.867188 22.898438 44.289062 L 23.019531 44.078125 C 23.109375 43.929688 23.050781 43.871094 22.894531 43.871094 C 22.558594 43.867188 22.222656 43.859375 21.886719 43.863281 C 21.597656 43.867188 21.359375 43.78125 21.152344 43.5625 C 20.691406 43.089844 20.21875 42.621094 19.742188 42.164062 C 19.527344 41.960938 19.429688 41.71875 19.433594 41.429688 C 19.433594 41.023438 19.414062 40.613281 19.4375 40.207031 C 19.457031 39.855469 19.324219 39.621094 19.015625 39.46875 C 19.003906 39.464844 18.996094 39.457031 18.988281 39.453125 C 18.46875 39.214844 18.242188 38.8125 18.332031 38.246094 C 18.390625 37.898438 18.332031 37.554688 18.332031 37.210938 C 18.332031 33.054688 18.308594 28.894531 18.34375 24.742188 C 18.363281 22.472656 18.488281 20.203125 18.558594 17.933594 C 18.582031 17.089844 18.5 16.230469 18.738281 15.414062 C 19.222656 13.730469 20.242188 12.515625 21.964844 12.003906 C 23.894531 11.425781 25.871094 11.105469 27.878906 10.972656 C 29.363281 10.875 30.847656 10.835938 32.335938 10.878906 C 34.824219 10.957031 37.273438 11.300781 39.691406 11.933594 C 41.851562 12.503906 43.261719 14.699219 43.261719 16.460938 C 43.257812 18.191406 43.328125 19.921875 43.390625 21.652344 C 43.445312 23.167969 43.472656 24.683594 43.515625 26.199219 C 43.574219 28.164062 43.507812 30.132812 43.546875 31.636719 Z M 43.546875 31.636719 " fill-opacity="1" fill-rule="nonzero"/></svg>