<svg xmlns="http://www.w3.org/2000/svg" xmlns:xlink="http://www.w3.org/1999/xlink" width="205" zoomAndPan="magnify" viewBox="0 0 153.75 47.25" height="63" preserveAspectRatio="xMidYMid meet" version="1.0"><defs><g/><clipPath id="26494ee360"><path d="M 1.078125 0 L 47.265625 0 L 47.265625 46.1875 L 1.078125 46.1875 Z M 1.078125 0 " clip-rule="nonzero"/></clipPath><clipPath id="d0a2823db9"><path d="M 24.171875 0 C 11.417969 0 1.078125 10.339844 1.078125 23.09375 C 1.078125 35.847656 11.417969 46.1875 24.171875 46.1875 C 36.925781 46.1875 47.265625 35.847656 47.265625 23.09375 C 47.265625 10.339844 36.925781 0 24.171875 0 Z M 24.171875 0 " clip-rule="nonzero"/></clipPath></defs><g clip-path="url(#26494ee360)"><g clip-path="url(#d0a2823db9)"><path stroke-linecap="butt" transform="matrix(0.738281, 0, 0, 0.738281, 1.078126, 0.000000984375)" fill="none" stroke-linejoin="miter" d="M 31.280424 -0.00000133333 C 14.005291 -0.00000133333 -0.00000108642 14.00529 -0.00000108642 31.280424 C -0.00000108642 48.555557 14.005291 62.560848 31.280424 62.560848 C 48.555557 62.560848 62.560849 48.555557 62.560849 31.280424 C 62.560849 14.00529 48.555557 -0.00000133333 31.280424 -0.00000133333 Z M 31.280424 -0.00000133333 " stroke="#ffffff" stroke-width="11" stroke-opacity="1" stroke-miterlimit="4"/></g></g><g fill="#ffffff" fill-opacity="1"><g transform="translate(56.76216, 18.989295)"><g><path d="M 8.25 -8.5625 L 5.234375 -8.5625 L 5.234375 0 L 3.203125 0 L 3.203125 -8.5625 L 0.15625 -8.5625 L 0.15625 -10.375 L 8.25 -10.375 Z M 8.25 -8.5625 "/></g></g></g><g fill="#ffffff" fill-opacity="1"><g transform="translate(63.619414, 18.989295)"><g><path d="M 4.9375 -5.59375 C 4.625 -5.707031 4.347656 -5.765625 4.109375 -5.765625 C 3.753906 -5.765625 3.460938 -5.671875 3.234375 -5.484375 C 3.003906 -5.304688 2.847656 -5.070312 2.765625 -4.78125 L 2.765625 0 L 0.84375 0 L 0.84375 -7.40625 L 2.34375 -7.40625 L 2.5625 -6.421875 L 2.625 -6.421875 C 2.789062 -6.796875 3.015625 -7.078125 3.296875 -7.265625 C 3.585938 -7.460938 3.925781 -7.5625 4.3125 -7.5625 C 4.570312 -7.5625 4.863281 -7.507812 5.1875 -7.40625 Z M 4.9375 -5.59375 "/></g></g></g><g fill="#ffffff" fill-opacity="1"><g transform="translate(68.818328, 18.989295)"><g><path d="M 0.796875 -6.984375 C 1.191406 -7.160156 1.660156 -7.296875 2.203125 -7.390625 C 2.742188 -7.492188 3.3125 -7.546875 3.90625 -7.546875 C 4.425781 -7.546875 4.859375 -7.484375 5.203125 -7.359375 C 5.546875 -7.242188 5.816406 -7.070312 6.015625 -6.84375 C 6.222656 -6.613281 6.367188 -6.335938 6.453125 -6.015625 C 6.535156 -5.703125 6.578125 -5.351562 6.578125 -4.96875 C 6.578125 -4.53125 6.5625 -4.085938 6.53125 -3.640625 C 6.5 -3.203125 6.476562 -2.769531 6.46875 -2.34375 C 6.46875 -1.925781 6.484375 -1.515625 6.515625 -1.109375 C 6.546875 -0.710938 6.617188 -0.335938 6.734375 0.015625 L 5.171875 0.015625 L 4.859375 -1 L 4.78125 -1 C 4.582031 -0.695312 4.304688 -0.429688 3.953125 -0.203125 C 3.609375 0.015625 3.160156 0.125 2.609375 0.125 C 2.265625 0.125 1.953125 0.0703125 1.671875 -0.03125 C 1.398438 -0.132812 1.164062 -0.28125 0.96875 -0.46875 C 0.769531 -0.664062 0.613281 -0.894531 0.5 -1.15625 C 0.394531 -1.425781 0.34375 -1.722656 0.34375 -2.046875 C 0.34375 -2.492188 0.441406 -2.875 0.640625 -3.1875 C 0.847656 -3.5 1.140625 -3.75 1.515625 -3.9375 C 1.898438 -4.132812 2.351562 -4.269531 2.875 -4.34375 C 3.40625 -4.414062 4 -4.441406 4.65625 -4.421875 C 4.71875 -4.972656 4.675781 -5.367188 4.53125 -5.609375 C 4.382812 -5.847656 4.054688 -5.96875 3.546875 -5.96875 C 3.160156 -5.96875 2.75 -5.925781 2.3125 -5.84375 C 1.882812 -5.769531 1.535156 -5.671875 1.265625 -5.546875 Z M 3.25 -1.46875 C 3.632812 -1.46875 3.9375 -1.550781 4.15625 -1.71875 C 4.382812 -1.894531 4.554688 -2.082031 4.671875 -2.28125 L 4.671875 -3.25 C 4.359375 -3.269531 4.0625 -3.269531 3.78125 -3.25 C 3.5 -3.238281 3.25 -3.195312 3.03125 -3.125 C 2.8125 -3.050781 2.640625 -2.953125 2.515625 -2.828125 C 2.390625 -2.703125 2.328125 -2.539062 2.328125 -2.34375 C 2.328125 -2.0625 2.40625 -1.84375 2.5625 -1.6875 C 2.726562 -1.539062 2.957031 -1.46875 3.25 -1.46875 Z M 3.25 -1.46875 "/></g></g></g><g fill="#ffffff" fill-opacity="1"><g transform="translate(76.164945, 18.989295)"><g><path d="M 5.375 0 L 5.375 -4.203125 C 5.375 -4.804688 5.285156 -5.238281 5.109375 -5.5 C 4.941406 -5.769531 4.648438 -5.90625 4.234375 -5.90625 C 3.867188 -5.90625 3.5625 -5.796875 3.3125 -5.578125 C 3.0625 -5.367188 2.878906 -5.109375 2.765625 -4.796875 L 2.765625 0 L 0.84375 0 L 0.84375 -7.40625 L 2.375 -7.40625 L 2.59375 -6.421875 L 2.65625 -6.421875 C 2.875 -6.742188 3.171875 -7.019531 3.546875 -7.25 C 3.929688 -7.488281 4.414062 -7.609375 5 -7.609375 C 5.363281 -7.609375 5.6875 -7.554688 5.96875 -7.453125 C 6.257812 -7.359375 6.503906 -7.195312 6.703125 -6.96875 C 6.898438 -6.75 7.046875 -6.441406 7.140625 -6.046875 C 7.242188 -5.660156 7.296875 -5.179688 7.296875 -4.609375 L 7.296875 0 Z M 5.375 0 "/></g></g></g><g fill="#ffffff" fill-opacity="1"><g transform="translate(84.237338, 18.989295)"><g><path d="M 3.90625 -2.046875 C 3.90625 -2.242188 3.820312 -2.398438 3.65625 -2.515625 C 3.488281 -2.640625 3.28125 -2.75 3.03125 -2.84375 C 2.789062 -2.9375 2.519531 -3.035156 2.21875 -3.140625 C 1.925781 -3.242188 1.65625 -3.382812 1.40625 -3.5625 C 1.15625 -3.75 0.945312 -3.984375 0.78125 -4.265625 C 0.613281 -4.554688 0.53125 -4.921875 0.53125 -5.359375 C 0.53125 -6.085938 0.75 -6.644531 1.1875 -7.03125 C 1.625 -7.414062 2.25 -7.609375 3.0625 -7.609375 C 3.625 -7.609375 4.128906 -7.550781 4.578125 -7.4375 C 5.035156 -7.320312 5.394531 -7.1875 5.65625 -7.03125 L 5.234375 -5.640625 C 5.003906 -5.734375 4.710938 -5.828125 4.359375 -5.921875 C 4.015625 -6.023438 3.664062 -6.078125 3.3125 -6.078125 C 2.738281 -6.078125 2.453125 -5.851562 2.453125 -5.40625 C 2.453125 -5.226562 2.535156 -5.082031 2.703125 -4.96875 C 2.878906 -4.863281 3.085938 -4.765625 3.328125 -4.671875 C 3.578125 -4.578125 3.847656 -4.472656 4.140625 -4.359375 C 4.441406 -4.253906 4.710938 -4.113281 4.953125 -3.9375 C 5.203125 -3.769531 5.410156 -3.546875 5.578125 -3.265625 C 5.753906 -2.992188 5.84375 -2.640625 5.84375 -2.203125 C 5.84375 -1.453125 5.601562 -0.863281 5.125 -0.4375 C 4.644531 -0.0078125 3.925781 0.203125 2.96875 0.203125 C 2.4375 0.203125 1.941406 0.132812 1.484375 0 C 1.023438 -0.125 0.65625 -0.273438 0.375 -0.453125 L 0.90625 -1.890625 C 1.132812 -1.765625 1.4375 -1.640625 1.8125 -1.515625 C 2.1875 -1.390625 2.570312 -1.328125 2.96875 -1.328125 C 3.25 -1.328125 3.472656 -1.378906 3.640625 -1.484375 C 3.816406 -1.597656 3.90625 -1.785156 3.90625 -2.046875 Z M 3.90625 -2.046875 "/></g></g></g><g fill="#ffffff" fill-opacity="1"><g transform="translate(90.487889, 18.989295)"><g><path d="M 0.84375 -7.40625 L 2.25 -7.40625 L 2.46875 -6.515625 L 2.53125 -6.515625 C 2.789062 -6.890625 3.09375 -7.164062 3.4375 -7.34375 C 3.789062 -7.519531 4.21875 -7.609375 4.71875 -7.609375 C 5.65625 -7.609375 6.351562 -7.3125 6.8125 -6.71875 C 7.28125 -6.132812 7.515625 -5.191406 7.515625 -3.890625 C 7.515625 -3.265625 7.4375 -2.695312 7.28125 -2.1875 C 7.132812 -1.675781 6.914062 -1.242188 6.625 -0.890625 C 6.332031 -0.535156 5.976562 -0.265625 5.5625 -0.078125 C 5.144531 0.109375 4.664062 0.203125 4.125 0.203125 C 3.8125 0.203125 3.554688 0.179688 3.359375 0.140625 C 3.160156 0.0976562 2.960938 0.0234375 2.765625 -0.078125 L 2.765625 2.96875 L 0.84375 2.96875 Z M 4.140625 -5.984375 C 3.765625 -5.984375 3.472656 -5.890625 3.265625 -5.703125 C 3.054688 -5.515625 2.890625 -5.234375 2.765625 -4.859375 L 2.765625 -1.78125 C 2.910156 -1.664062 3.0625 -1.578125 3.21875 -1.515625 C 3.382812 -1.453125 3.597656 -1.421875 3.859375 -1.421875 C 4.421875 -1.421875 4.835938 -1.613281 5.109375 -2 C 5.390625 -2.394531 5.53125 -3.039062 5.53125 -3.9375 C 5.53125 -4.59375 5.421875 -5.097656 5.203125 -5.453125 C 4.984375 -5.804688 4.628906 -5.984375 4.140625 -5.984375 Z M 4.140625 -5.984375 "/></g></g></g><g fill="#ffffff" fill-opacity="1"><g transform="translate(98.486224, 18.989295)"><g><path d="M 0.484375 -3.703125 C 0.484375 -4.953125 0.789062 -5.914062 1.40625 -6.59375 C 2.019531 -7.269531 2.878906 -7.609375 3.984375 -7.609375 C 4.578125 -7.609375 5.085938 -7.515625 5.515625 -7.328125 C 5.953125 -7.140625 6.3125 -6.875 6.59375 -6.53125 C 6.882812 -6.195312 7.101562 -5.785156 7.25 -5.296875 C 7.394531 -4.816406 7.46875 -4.285156 7.46875 -3.703125 C 7.46875 -2.453125 7.160156 -1.488281 6.546875 -0.8125 C 5.941406 -0.132812 5.085938 0.203125 3.984375 0.203125 C 3.390625 0.203125 2.875 0.109375 2.4375 -0.078125 C 2.007812 -0.265625 1.648438 -0.523438 1.359375 -0.859375 C 1.066406 -1.203125 0.847656 -1.613281 0.703125 -2.09375 C 0.554688 -2.582031 0.484375 -3.117188 0.484375 -3.703125 Z M 2.46875 -3.703125 C 2.46875 -3.378906 2.5 -3.078125 2.5625 -2.796875 C 2.625 -2.523438 2.710938 -2.285156 2.828125 -2.078125 C 2.941406 -1.867188 3.09375 -1.707031 3.28125 -1.59375 C 3.476562 -1.476562 3.710938 -1.421875 3.984375 -1.421875 C 4.484375 -1.421875 4.859375 -1.601562 5.109375 -1.96875 C 5.359375 -2.332031 5.484375 -2.910156 5.484375 -3.703125 C 5.484375 -4.378906 5.367188 -4.925781 5.140625 -5.34375 C 4.910156 -5.769531 4.523438 -5.984375 3.984375 -5.984375 C 3.515625 -5.984375 3.144531 -5.804688 2.875 -5.453125 C 2.601562 -5.097656 2.46875 -4.515625 2.46875 -3.703125 Z M 2.46875 -3.703125 "/></g></g></g><g fill="#ffffff" fill-opacity="1"><g transform="translate(106.440118, 18.989295)"><g><path d="M 4.9375 -5.59375 C 4.625 -5.707031 4.347656 -5.765625 4.109375 -5.765625 C 3.753906 -5.765625 3.460938 -5.671875 3.234375 -5.484375 C 3.003906 -5.304688 2.847656 -5.070312 2.765625 -4.78125 L 2.765625 0 L 0.84375 0 L 0.84375 -7.40625 L 2.34375 -7.40625 L 2.5625 -6.421875 L 2.625 -6.421875 C 2.789062 -6.796875 3.015625 -7.078125 3.296875 -7.265625 C 3.585938 -7.460938 3.925781 -7.5625 4.3125 -7.5625 C 4.570312 -7.5625 4.863281 -7.507812 5.1875 -7.40625 Z M 4.9375 -5.59375 "/></g></g></g><g fill="#ffffff" fill-opacity="1"><g transform="translate(112.083549, 18.989295)"><g><path d="M 0.078125 -7.40625 L 1.09375 -7.40625 L 1.09375 -8.796875 L 3.015625 -9.34375 L 3.015625 -7.40625 L 4.828125 -7.40625 L 4.828125 -5.78125 L 3.015625 -5.78125 L 3.015625 -2.9375 C 3.015625 -2.414062 3.066406 -2.046875 3.171875 -1.828125 C 3.273438 -1.609375 3.472656 -1.5 3.765625 -1.5 C 3.960938 -1.5 4.128906 -1.515625 4.265625 -1.546875 C 4.410156 -1.585938 4.570312 -1.648438 4.75 -1.734375 L 5.09375 -0.25 C 4.832031 -0.125 4.519531 -0.0195312 4.15625 0.0625 C 3.800781 0.15625 3.441406 0.203125 3.078125 0.203125 C 2.398438 0.203125 1.898438 0.03125 1.578125 -0.3125 C 1.253906 -0.664062 1.09375 -1.242188 1.09375 -2.046875 L 1.09375 -5.78125 L 0.078125 -5.78125 Z M 0.078125 -7.40625 "/></g></g></g><g fill="#ffffff" fill-opacity="1"><g transform="translate(117.252847, 18.989295)"><g><path d="M 0.796875 -6.984375 C 1.191406 -7.160156 1.660156 -7.296875 2.203125 -7.390625 C 2.742188 -7.492188 3.3125 -7.546875 3.90625 -7.546875 C 4.425781 -7.546875 4.859375 -7.484375 5.203125 -7.359375 C 5.546875 -7.242188 5.816406 -7.070312 6.015625 -6.84375 C 6.222656 -6.613281 6.367188 -6.335938 6.453125 -6.015625 C 6.535156 -5.703125 6.578125 -5.351562 6.578125 -4.96875 C 6.578125 -4.53125 6.5625 -4.085938 6.53125 -3.640625 C 6.5 -3.203125 6.476562 -2.769531 6.46875 -2.34375 C 6.46875 -1.925781 6.484375 -1.515625 6.515625 -1.109375 C 6.546875 -0.710938 6.617188 -0.335938 6.734375 0.015625 L 5.171875 0.015625 L 4.859375 -1 L 4.78125 -1 C 4.582031 -0.695312 4.304688 -0.429688 3.953125 -0.203125 C 3.609375 0.015625 3.160156 0.125 2.609375 0.125 C 2.265625 0.125 1.953125 0.0703125 1.671875 -0.03125 C 1.398438 -0.132812 1.164062 -0.28125 0.96875 -0.46875 C 0.769531 -0.664062 0.613281 -0.894531 0.5 -1.15625 C 0.394531 -1.425781 0.34375 -1.722656 0.34375 -2.046875 C 0.34375 -2.492188 0.441406 -2.875 0.640625 -3.1875 C 0.847656 -3.5 1.140625 -3.75 1.515625 -3.9375 C 1.898438 -4.132812 2.351562 -4.269531 2.875 -4.34375 C 3.40625 -4.414062 4 -4.441406 4.65625 -4.421875 C 4.71875 -4.972656 4.675781 -5.367188 4.53125 -5.609375 C 4.382812 -5.847656 4.054688 -5.96875 3.546875 -5.96875 C 3.160156 -5.96875 2.75 -5.925781 2.3125 -5.84375 C 1.882812 -5.769531 1.535156 -5.671875 1.265625 -5.546875 Z M 3.25 -1.46875 C 3.632812 -1.46875 3.9375 -1.550781 4.15625 -1.71875 C 4.382812 -1.894531 4.554688 -2.082031 4.671875 -2.28125 L 4.671875 -3.25 C 4.359375 -3.269531 4.0625 -3.269531 3.78125 -3.25 C 3.5 -3.238281 3.25 -3.195312 3.03125 -3.125 C 2.8125 -3.050781 2.640625 -2.953125 2.515625 -2.828125 C 2.390625 -2.703125 2.328125 -2.539062 2.328125 -2.34375 C 2.328125 -2.0625 2.40625 -1.84375 2.5625 -1.6875 C 2.726562 -1.539062 2.957031 -1.46875 3.25 -1.46875 Z M 3.25 -1.46875 "/></g></g></g><g fill="#ffffff" fill-opacity="1"><g transform="translate(124.599464, 18.989295)"><g><path d="M 3.90625 -2.046875 C 3.90625 -2.242188 3.820312 -2.398438 3.65625 -2.515625 C 3.488281 -2.640625 3.28125 -2.75 3.03125 -2.84375 C 2.789062 -2.9375 2.519531 -3.035156 2.21875 -3.140625 C 1.925781 -3.242188 1.65625 -3.382812 1.40625 -3.5625 C 1.15625 -3.75 0.945312 -3.984375 0.78125 -4.265625 C 0.613281 -4.554688 0.53125 -4.921875 0.53125 -5.359375 C 0.53125 -6.085938 0.75 -6.644531 1.1875 -7.03125 C 1.625 -7.414062 2.25 -7.609375 3.0625 -7.609375 C 3.625 -7.609375 4.128906 -7.550781 4.578125 -7.4375 C 5.035156 -7.320312 5.394531 -7.1875 5.65625 -7.03125 L 5.234375 -5.640625 C 5.003906 -5.734375 4.710938 -5.828125 4.359375 -5.921875 C 4.015625 -6.023438 3.664062 -6.078125 3.3125 -6.078125 C 2.738281 -6.078125 2.453125 -5.851562 2.453125 -5.40625 C 2.453125 -5.226562 2.535156 -5.082031 2.703125 -4.96875 C 2.878906 -4.863281 3.085938 -4.765625 3.328125 -4.671875 C 3.578125 -4.578125 3.847656 -4.472656 4.140625 -4.359375 C 4.441406 -4.253906 4.710938 -4.113281 4.953125 -3.9375 C 5.203125 -3.769531 5.410156 -3.546875 5.578125 -3.265625 C 5.753906 -2.992188 5.84375 -2.640625 5.84375 -2.203125 C 5.84375 -1.453125 5.601562 -0.863281 5.125 -0.4375 C 4.644531 -0.0078125 3.925781 0.203125 2.96875 0.203125 C 2.4375 0.203125 1.941406 0.132812 1.484375 0 C 1.023438 -0.125 0.65625 -0.273438 0.375 -0.453125 L 0.90625 -1.890625 C 1.132812 -1.765625 1.4375 -1.640625 1.8125 -1.515625 C 2.1875 -1.390625 2.570312 -1.328125 2.96875 -1.328125 C 3.25 -1.328125 3.472656 -1.378906 3.640625 -1.484375 C 3.816406 -1.597656 3.90625 -1.785156 3.90625 -2.046875 Z M 3.90625 -2.046875 "/></g></g></g><g fill="#ffffff" fill-opacity="1"><g transform="translate(130.850014, 18.989295)"><g><path d="M 1 -7.40625 L 2.9375 -7.40625 L 2.9375 0 L 1 0 Z M 0.734375 -9.5 C 0.734375 -9.78125 0.835938 -10.019531 1.046875 -10.21875 C 1.265625 -10.425781 1.5625 -10.53125 1.9375 -10.53125 C 2.3125 -10.53125 2.613281 -10.425781 2.84375 -10.21875 C 3.070312 -10.019531 3.1875 -9.78125 3.1875 -9.5 C 3.1875 -9.207031 3.070312 -8.960938 2.84375 -8.765625 C 2.613281 -8.578125 2.3125 -8.484375 1.9375 -8.484375 C 1.5625 -8.484375 1.265625 -8.578125 1.046875 -8.765625 C 0.835938 -8.960938 0.734375 -9.207031 0.734375 -9.5 Z M 0.734375 -9.5 "/></g></g></g><g fill="#ffffff" fill-opacity="1"><g transform="translate(56.76216, 38.184606)"><g><path d="M 8.9375 -5.375 L 9.15625 -7.4375 L 9.0625 -7.4375 L 8.421875 -5.78125 L 6.21875 -1.90625 L 5.5625 -1.90625 L 3.25 -5.796875 L 2.59375 -7.4375 L 2.515625 -7.4375 L 2.8125 -5.390625 L 2.8125 0 L 0.890625 0 L 0.890625 -10.375 L 2.734375 -10.375 L 5.515625 -5.625 L 6 -4.4375 L 6.0625 -4.4375 L 6.5 -5.65625 L 9.125 -10.375 L 10.96875 -10.375 L 10.96875 0 L 8.9375 0 Z M 8.9375 -5.375 "/></g></g></g><g fill="#ffffff" fill-opacity="1"><g transform="translate(68.611542, 38.184606)"><g><path d="M 6 -2.296875 L 2.8125 -2.296875 L 2.03125 0 L 0 0 L 3.734375 -10.4375 L 5.234375 -10.4375 L 8.96875 0 L 6.828125 0 Z M 3.328125 -3.921875 L 5.546875 -3.921875 L 4.78125 -6.234375 L 4.46875 -7.859375 L 4.40625 -7.859375 L 4.09375 -6.21875 Z M 3.328125 -3.921875 "/></g></g></g><g fill="#ffffff" fill-opacity="1"><g transform="translate(77.572642, 38.184606)"><g><path d="M 3.46875 -5.40625 L 2.65625 -7.03125 L 2.578125 -7.03125 L 2.8125 -5.40625 L 2.8125 0 L 0.890625 0 L 0.890625 -10.4375 L 2.375 -10.4375 L 6.296875 -4.921875 L 7.078125 -3.328125 L 7.15625 -3.328125 L 6.921875 -4.921875 L 6.921875 -10.375 L 8.84375 -10.375 L 8.84375 0.078125 L 7.359375 0.078125 Z M 3.46875 -5.40625 "/></g></g></g><g fill="#ffffff" fill-opacity="1"><g transform="translate(87.303949, 38.184606)"><g/></g></g><g fill="#ffffff" fill-opacity="1"><g transform="translate(91.051321, 38.184606)"><g><path d="M 0.671875 -7.125 C 0.671875 -7.625 0.742188 -8.085938 0.890625 -8.515625 C 1.046875 -8.941406 1.269531 -9.304688 1.5625 -9.609375 C 1.851562 -9.910156 2.207031 -10.144531 2.625 -10.3125 C 3.050781 -10.488281 3.535156 -10.578125 4.078125 -10.578125 C 5.191406 -10.578125 6.066406 -10.242188 6.703125 -9.578125 C 7.335938 -8.910156 7.65625 -7.941406 7.65625 -6.671875 C 7.65625 -5.523438 7.507812 -4.53125 7.21875 -3.6875 C 6.925781 -2.851562 6.535156 -2.15625 6.046875 -1.59375 C 5.554688 -1.039062 4.988281 -0.613281 4.34375 -0.3125 C 3.707031 -0.0195312 3.035156 0.148438 2.328125 0.203125 L 1.90625 -1.296875 C 2.445312 -1.367188 2.929688 -1.503906 3.359375 -1.703125 C 3.785156 -1.898438 4.148438 -2.144531 4.453125 -2.4375 C 4.765625 -2.726562 5.015625 -3.054688 5.203125 -3.421875 C 5.398438 -3.796875 5.535156 -4.195312 5.609375 -4.625 C 5.378906 -4.363281 5.125 -4.179688 4.84375 -4.078125 C 4.570312 -3.984375 4.210938 -3.9375 3.765625 -3.9375 C 3.390625 -3.9375 3.015625 -4 2.640625 -4.125 C 2.273438 -4.257812 1.945312 -4.457031 1.65625 -4.71875 C 1.363281 -4.976562 1.125 -5.304688 0.9375 -5.703125 C 0.757812 -6.109375 0.671875 -6.582031 0.671875 -7.125 Z M 2.53125 -7.234375 C 2.53125 -6.671875 2.6875 -6.242188 3 -5.953125 C 3.320312 -5.671875 3.71875 -5.53125 4.1875 -5.53125 C 4.59375 -5.53125 4.921875 -5.59375 5.171875 -5.71875 C 5.429688 -5.84375 5.632812 -6 5.78125 -6.1875 C 5.8125 -6.394531 5.828125 -6.59375 5.828125 -6.78125 C 5.828125 -7.0625 5.789062 -7.332031 5.71875 -7.59375 C 5.644531 -7.863281 5.535156 -8.101562 5.390625 -8.3125 C 5.253906 -8.519531 5.070312 -8.679688 4.84375 -8.796875 C 4.625 -8.921875 4.363281 -8.984375 4.0625 -8.984375 C 3.570312 -8.984375 3.191406 -8.828125 2.921875 -8.515625 C 2.660156 -8.210938 2.53125 -7.785156 2.53125 -7.234375 Z M 2.53125 -7.234375 "/></g></g></g><g fill="#ffffff" fill-opacity="1"><g transform="translate(99.449574, 38.184606)"><g/></g></g><g fill="#ffffff" fill-opacity="1"><g transform="translate(103.196946, 38.184606)"><g><path d="M 1.9375 -10.375 L 3.96875 -10.375 L 3.96875 -2.78125 C 3.96875 -2.382812 3.921875 -2.007812 3.828125 -1.65625 C 3.742188 -1.300781 3.597656 -0.988281 3.390625 -0.71875 C 3.191406 -0.445312 2.929688 -0.226562 2.609375 -0.0625 C 2.296875 0.09375 1.914062 0.171875 1.46875 0.171875 C 1.175781 0.171875 0.863281 0.140625 0.53125 0.078125 C 0.195312 0.0234375 -0.09375 -0.0507812 -0.34375 -0.15625 L 0.109375 -1.828125 C 0.359375 -1.691406 0.648438 -1.625 0.984375 -1.625 C 1.390625 -1.625 1.648438 -1.773438 1.765625 -2.078125 C 1.878906 -2.390625 1.9375 -2.796875 1.9375 -3.296875 Z M 1.9375 -10.375 "/></g></g></g><g fill="#ffffff" fill-opacity="1"><g transform="translate(108.144059, 38.184606)"><g><path d="M 0.796875 -6.984375 C 1.191406 -7.160156 1.660156 -7.296875 2.203125 -7.390625 C 2.742188 -7.492188 3.3125 -7.546875 3.90625 -7.546875 C 4.425781 -7.546875 4.859375 -7.484375 5.203125 -7.359375 C 5.546875 -7.242188 5.816406 -7.070312 6.015625 -6.84375 C 6.222656 -6.613281 6.367188 -6.335938 6.453125 -6.015625 C 6.535156 -5.703125 6.578125 -5.351562 6.578125 -4.96875 C 6.578125 -4.53125 6.5625 -4.085938 6.53125 -3.640625 C 6.5 -3.203125 6.476562 -2.769531 6.46875 -2.34375 C 6.46875 -1.925781 6.484375 -1.515625 6.515625 -1.109375 C 6.546875 -0.710938 6.617188 -0.335938 6.734375 0.015625 L 5.171875 0.015625 L 4.859375 -1 L 4.78125 -1 C 4.582031 -0.695312 4.304688 -0.429688 3.953125 -0.203125 C 3.609375 0.015625 3.160156 0.125 2.609375 0.125 C 2.265625 0.125 1.953125 0.0703125 1.671875 -0.03125 C 1.398438 -0.132812 1.164062 -0.28125 0.96875 -0.46875 C 0.769531 -0.664062 0.613281 -0.894531 0.5 -1.15625 C 0.394531 -1.425781 0.34375 -1.722656 0.34375 -2.046875 C 0.34375 -2.492188 0.441406 -2.875 0.640625 -3.1875 C 0.847656 -3.5 1.140625 -3.75 1.515625 -3.9375 C 1.898438 -4.132812 2.351562 -4.269531 2.875 -4.34375 C 3.40625 -4.414062 4 -4.441406 4.65625 -4.421875 C 4.71875 -4.972656 4.675781 -5.367188 4.53125 -5.609375 C 4.382812 -5.847656 4.054688 -5.96875 3.546875 -5.96875 C 3.160156 -5.96875 2.75 -5.925781 2.3125 -5.84375 C 1.882812 -5.769531 1.535156 -5.671875 1.265625 -5.546875 Z M 3.25 -1.46875 C 3.632812 -1.46875 3.9375 -1.550781 4.15625 -1.71875 C 4.382812 -1.894531 4.554688 -2.082031 4.671875 -2.28125 L 4.671875 -3.25 C 4.359375 -3.269531 4.0625 -3.269531 3.78125 -3.25 C 3.5 -3.238281 3.25 -3.195312 3.03125 -3.125 C 2.8125 -3.050781 2.640625 -2.953125 2.515625 -2.828125 C 2.390625 -2.703125 2.328125 -2.539062 2.328125 -2.34375 C 2.328125 -2.0625 2.40625 -1.84375 2.5625 -1.6875 C 2.726562 -1.539062 2.957031 -1.46875 3.25 -1.46875 Z M 3.25 -1.46875 "/></g></g></g><g fill="#ffffff" fill-opacity="1"><g transform="translate(115.490676, 38.184606)"><g><path d="M 3.28125 -3.0625 L 2.765625 -3.0625 L 2.765625 0 L 0.84375 0 L 0.84375 -10.375 L 2.765625 -10.375 L 2.765625 -4.25 L 3.21875 -4.453125 L 4.90625 -7.40625 L 7.015625 -7.40625 L 5.25 -4.59375 L 4.484375 -4.03125 L 5.296875 -3.453125 L 7.296875 0 L 5.09375 0 Z M 3.28125 -3.0625 "/></g></g></g><g fill="#ffffff" fill-opacity="1"><g transform="translate(122.763235, 38.184606)"><g><path d="M 0.796875 -6.984375 C 1.191406 -7.160156 1.660156 -7.296875 2.203125 -7.390625 C 2.742188 -7.492188 3.3125 -7.546875 3.90625 -7.546875 C 4.425781 -7.546875 4.859375 -7.484375 5.203125 -7.359375 C 5.546875 -7.242188 5.816406 -7.070312 6.015625 -6.84375 C 6.222656 -6.613281 6.367188 -6.335938 6.453125 -6.015625 C 6.535156 -5.703125 6.578125 -5.351562 6.578125 -4.96875 C 6.578125 -4.53125 6.5625 -4.085938 6.53125 -3.640625 C 6.5 -3.203125 6.476562 -2.769531 6.46875 -2.34375 C 6.46875 -1.925781 6.484375 -1.515625 6.515625 -1.109375 C 6.546875 -0.710938 6.617188 -0.335938 6.734375 0.015625 L 5.171875 0.015625 L 4.859375 -1 L 4.78125 -1 C 4.582031 -0.695312 4.304688 -0.429688 3.953125 -0.203125 C 3.609375 0.015625 3.160156 0.125 2.609375 0.125 C 2.265625 0.125 1.953125 0.0703125 1.671875 -0.03125 C 1.398438 -0.132812 1.164062 -0.28125 0.96875 -0.46875 C 0.769531 -0.664062 0.613281 -0.894531 0.5 -1.15625 C 0.394531 -1.425781 0.34375 -1.722656 0.34375 -2.046875 C 0.34375 -2.492188 0.441406 -2.875 0.640625 -3.1875 C 0.847656 -3.5 1.140625 -3.75 1.515625 -3.9375 C 1.898438 -4.132812 2.351562 -4.269531 2.875 -4.34375 C 3.40625 -4.414062 4 -4.441406 4.65625 -4.421875 C 4.71875 -4.972656 4.675781 -5.367188 4.53125 -5.609375 C 4.382812 -5.847656 4.054688 -5.96875 3.546875 -5.96875 C 3.160156 -5.96875 2.75 -5.925781 2.3125 -5.84375 C 1.882812 -5.769531 1.535156 -5.671875 1.265625 -5.546875 Z M 3.25 -1.46875 C 3.632812 -1.46875 3.9375 -1.550781 4.15625 -1.71875 C 4.382812 -1.894531 4.554688 -2.082031 4.671875 -2.28125 L 4.671875 -3.25 C 4.359375 -3.269531 4.0625 -3.269531 3.78125 -3.25 C 3.5 -3.238281 3.25 -3.195312 3.03125 -3.125 C 2.8125 -3.050781 2.640625 -2.953125 2.515625 -2.828125 C 2.390625 -2.703125 2.328125 -2.539062 2.328125 -2.34375 C 2.328125 -2.0625 2.40625 -1.84375 2.5625 -1.6875 C 2.726562 -1.539062 2.957031 -1.46875 3.25 -1.46875 Z M 3.25 -1.46875 "/></g></g></g><g fill="#ffffff" fill-opacity="1"><g transform="translate(130.109851, 38.184606)"><g><path d="M 4.9375 -5.59375 C 4.625 -5.707031 4.347656 -5.765625 4.109375 -5.765625 C 3.753906 -5.765625 3.460938 -5.671875 3.234375 -5.484375 C 3.003906 -5.304688 2.847656 -5.070312 2.765625 -4.78125 L 2.765625 0 L 0.84375 0 L 0.84375 -7.40625 L 2.34375 -7.40625 L 2.5625 -6.421875 L 2.625 -6.421875 C 2.789062 -6.796875 3.015625 -7.078125 3.296875 -7.265625 C 3.585938 -7.460938 3.925781 -7.5625 4.3125 -7.5625 C 4.570312 -7.5625 4.863281 -7.507812 5.1875 -7.40625 Z M 4.9375 -5.59375 "/></g></g></g><g fill="#ffffff" fill-opacity="1"><g transform="translate(135.753282, 38.184606)"><g><path d="M 0.078125 -7.40625 L 1.09375 -7.40625 L 1.09375 -8.796875 L 3.015625 -9.34375 L 3.015625 -7.40625 L 4.828125 -7.40625 L 4.828125 -5.78125 L 3.015625 -5.78125 L 3.015625 -2.9375 C 3.015625 -2.414062 3.066406 -2.046875 3.171875 -1.828125 C 3.273438 -1.609375 3.472656 -1.5 3.765625 -1.5 C 3.960938 -1.5 4.128906 -1.515625 4.265625 -1.546875 C 4.410156 -1.585938 4.570312 -1.648438 4.75 -1.734375 L 5.09375 -0.25 C 4.832031 -0.125 4.519531 -0.0195312 4.15625 0.0625 C 3.800781 0.15625 3.441406 0.203125 3.078125 0.203125 C 2.398438 0.203125 1.898438 0.03125 1.578125 -0.3125 C 1.253906 -0.664062 1.09375 -1.242188 1.09375 -2.046875 L 1.09375 -5.78125 L 0.078125 -5.78125 Z M 0.078125 -7.40625 "/></g></g></g><g fill="#ffffff" fill-opacity="1"><g transform="translate(140.92258, 38.184606)"><g><path d="M 0.796875 -6.984375 C 1.191406 -7.160156 1.660156 -7.296875 2.203125 -7.390625 C 2.742188 -7.492188 3.3125 -7.546875 3.90625 -7.546875 C 4.425781 -7.546875 4.859375 -7.484375 5.203125 -7.359375 C 5.546875 -7.242188 5.816406 -7.070312 6.015625 -6.84375 C 6.222656 -6.613281 6.367188 -6.335938 6.453125 -6.015625 C 6.535156 -5.703125 6.578125 -5.351562 6.578125 -4.96875 C 6.578125 -4.53125 6.5625 -4.085938 6.53125 -3.640625 C 6.5 -3.203125 6.476562 -2.769531 6.46875 -2.34375 C 6.46875 -1.925781 6.484375 -1.515625 6.515625 -1.109375 C 6.546875 -0.710938 6.617188 -0.335938 6.734375 0.015625 L 5.171875 0.015625 L 4.859375 -1 L 4.78125 -1 C 4.582031 -0.695312 4.304688 -0.429688 3.953125 -0.203125 C 3.609375 0.015625 3.160156 0.125 2.609375 0.125 C 2.265625 0.125 1.953125 0.0703125 1.671875 -0.03125 C 1.398438 -0.132812 1.164062 -0.28125 0.96875 -0.46875 C 0.769531 -0.664062 0.613281 -0.894531 0.5 -1.15625 C 0.394531 -1.425781 0.34375 -1.722656 0.34375 -2.046875 C 0.34375 -2.492188 0.441406 -2.875 0.640625 -3.1875 C 0.847656 -3.5 1.140625 -3.75 1.515625 -3.9375 C 1.898438 -4.132812 2.351562 -4.269531 2.875 -4.34375 C 3.40625 -4.414062 4 -4.441406 4.65625 -4.421875 C 4.71875 -4.972656 4.675781 -5.367188 4.53125 -5.609375 C 4.382812 -5.847656 4.054688 -5.96875 3.546875 -5.96875 C 3.160156 -5.96875 2.75 -5.925781 2.3125 -5.84375 C 1.882812 -5.769531 1.535156 -5.671875 1.265625 -5.546875 Z M 3.25 -1.46875 C 3.632812 -1.46875 3.9375 -1.550781 4.15625 -1.71875 C 4.382812 -1.894531 4.554688 -2.082031 4.671875 -2.28125 L 4.671875 -3.25 C 4.359375 -3.269531 4.0625 -3.269531 3.78125 -3.25 C 3.5 -3.238281 3.25 -3.195312 3.03125 -3.125 C 2.8125 -3.050781 2.640625 -2.953125 2.515625 -2.828125 C 2.390625 -2.703125 2.328125 -2.539062 2.328125 -2.34375 C 2.328125 -2.0625 2.40625 -1.84375 2.5625 -1.6875 C 2.726562 -1.539062 2.957031 -1.46875 3.25 -1.46875 Z M 3.25 -1.46875 "/></g></g></g></svg>